<svg width="348" height="447" viewBox="0 0 348 447" fill="none" xmlns="http://www.w3.org/2000/svg">
<g clip-path="url(#clip0_40_1393)">
<path d="M348.184 105.947H345.736V38.8395C345.736 28.5386 341.641 18.6597 334.353 11.3758C327.065 4.09201 317.18 5.06641e-09 306.873 5.06641e-09H164.609C159.506 -8.23744e-05 154.452 1.00445 149.737 2.95624C145.022 4.90804 140.738 7.76887 137.129 11.3754C133.52 14.9819 130.657 19.2635 128.704 23.9757C126.751 28.6879 125.746 33.7384 125.746 38.8389V406.994C125.746 417.295 129.84 427.174 137.128 434.457C144.417 441.741 154.302 445.833 164.609 445.833H306.871C317.178 445.833 327.063 441.741 334.351 434.457C341.639 427.174 345.734 417.295 345.734 406.994V153.715H348.182L348.184 105.947Z" fill="#3F3D56"/>
<path d="M337.764 36.2381V409.594C337.763 417.404 334.658 424.894 329.133 430.417C323.608 435.94 316.114 439.044 308.3 439.047H163.117C155.3 439.048 147.802 435.946 142.272 430.422C136.743 424.899 133.636 417.407 133.633 409.594V36.2381C133.636 28.4253 136.743 20.9334 142.272 15.4101C147.801 9.88684 155.299 6.78452 163.116 6.78552H180.727C179.863 8.91082 179.534 11.2159 179.769 13.4981C180.004 15.7803 180.797 17.9698 182.077 19.8741C183.358 21.7784 185.087 23.3392 187.112 24.4194C189.137 25.4995 191.397 26.066 193.693 26.0689H276.464C278.759 26.066 281.019 25.4995 283.044 24.4194C285.07 23.3392 286.799 21.7784 288.079 19.8741C289.359 17.9698 290.152 15.7803 290.388 13.4981C290.623 11.2159 290.294 8.91082 289.429 6.78552H308.294C316.109 6.78685 323.603 9.88954 329.129 15.4115C334.655 20.9334 337.761 28.4225 337.764 36.2324V36.2381Z" fill="white"/>
<path d="M235.672 186.117C269.147 186.117 296.284 158.997 296.284 125.542C296.284 92.0868 269.147 64.9661 235.672 64.9661C202.197 64.9661 175.06 92.0868 175.06 125.542C175.06 158.997 202.197 186.117 235.672 186.117Z" fill="#B24CC2"/>
<path d="M301.777 251.296H172.765C172.132 251.295 171.525 251.043 171.077 250.596C170.629 250.148 170.377 249.541 170.376 248.908V216.926C170.377 216.293 170.629 215.686 171.077 215.238C171.525 214.791 172.132 214.539 172.765 214.538H301.777C302.41 214.539 303.017 214.791 303.465 215.238C303.913 215.686 304.165 216.293 304.166 216.926V248.909C304.165 249.542 303.913 250.148 303.465 250.596C303.017 251.044 302.41 251.295 301.777 251.296V251.296ZM172.765 215.493C172.385 215.493 172.021 215.644 171.752 215.913C171.483 216.181 171.332 216.546 171.332 216.926V248.909C171.332 249.289 171.483 249.653 171.752 249.921C172.021 250.19 172.385 250.341 172.765 250.341H301.777C302.157 250.341 302.521 250.19 302.79 249.921C303.059 249.653 303.21 249.289 303.21 248.909V216.926C303.21 216.546 303.059 216.181 302.79 215.913C302.521 215.644 302.157 215.493 301.777 215.493H172.765Z" fill="#E6E6E6"/>
<path d="M212.663 226.056C212.22 226.056 211.794 226.232 211.481 226.545C211.167 226.859 210.991 227.284 210.991 227.727C210.991 228.171 211.167 228.596 211.481 228.909C211.794 229.223 212.22 229.399 212.663 229.399H291.503C291.946 229.416 292.378 229.256 292.704 228.955C293.029 228.653 293.221 228.235 293.238 227.792C293.255 227.349 293.096 226.918 292.794 226.592C292.493 226.267 292.074 226.075 291.631 226.058C291.606 226.057 291.582 226.056 291.557 226.057L212.663 226.056Z" fill="#E6E6E6"/>
<path d="M212.663 236.083C212.22 236.083 211.794 236.259 211.481 236.572C211.167 236.886 210.991 237.311 210.991 237.754C210.991 238.198 211.167 238.623 211.481 238.936C211.794 239.25 212.22 239.426 212.663 239.426H291.503C291.946 239.443 292.378 239.283 292.704 238.982C293.029 238.68 293.221 238.262 293.238 237.819C293.255 237.376 293.096 236.944 292.794 236.619C292.493 236.294 292.074 236.102 291.631 236.085C291.606 236.084 291.582 236.083 291.557 236.083L212.663 236.083Z" fill="#E6E6E6"/>
<path d="M301.777 304.604H172.765C172.132 304.603 171.525 304.351 171.077 303.904C170.629 303.456 170.377 302.849 170.376 302.216V270.234C170.377 269.601 170.629 268.994 171.077 268.547C171.525 268.099 172.132 267.847 172.765 267.846H301.777C302.41 267.847 303.017 268.099 303.465 268.547C303.913 268.994 304.165 269.601 304.166 270.234V302.217C304.165 302.85 303.913 303.456 303.465 303.904C303.017 304.351 302.41 304.603 301.777 304.604ZM172.765 268.801C172.385 268.801 172.021 268.952 171.752 269.221C171.483 269.49 171.332 269.854 171.332 270.234V302.217C171.332 302.597 171.483 302.961 171.752 303.23C172.021 303.498 172.385 303.649 172.765 303.65H301.777C302.157 303.649 302.521 303.498 302.79 303.23C303.059 302.961 303.21 302.597 303.21 302.217V270.234C303.21 269.854 303.059 269.49 302.79 269.221C302.521 268.952 302.157 268.801 301.777 268.801H172.765Z" fill="#E6E6E6"/>
<path d="M212.663 279.537C212.22 279.537 211.794 279.713 211.481 280.027C211.167 280.34 210.991 280.766 210.991 281.209C210.991 281.652 211.167 282.077 211.481 282.391C211.794 282.704 212.22 282.88 212.663 282.88H291.503C291.94 282.878 292.359 282.704 292.67 282.397C292.981 282.09 293.159 281.673 293.166 281.236C293.173 280.799 293.009 280.377 292.708 280.059C292.407 279.742 291.994 279.555 291.557 279.538H212.663V279.537Z" fill="#E6E6E6"/>
<path d="M212.663 289.567C212.22 289.567 211.794 289.743 211.481 290.056C211.167 290.37 210.991 290.795 210.991 291.238C210.991 291.681 211.167 292.107 211.481 292.42C211.794 292.733 212.22 292.91 212.663 292.91H291.503C291.94 292.907 292.359 292.734 292.67 292.426C292.981 292.119 293.159 291.702 293.166 291.265C293.173 290.828 293.009 290.406 292.708 290.088C292.407 289.771 291.994 289.584 291.557 289.567H212.663V289.567Z" fill="#E6E6E6"/>
<path d="M301.777 358.087H172.765C172.132 358.086 171.525 357.834 171.077 357.386C170.629 356.939 170.377 356.332 170.376 355.699V323.717C170.377 323.084 170.629 322.477 171.077 322.029C171.525 321.582 172.132 321.33 172.765 321.329H301.777C302.41 321.33 303.017 321.582 303.465 322.029C303.913 322.477 304.165 323.084 304.166 323.717V355.7C304.165 356.333 303.913 356.939 303.465 357.387C303.017 357.835 302.41 358.086 301.777 358.087V358.087ZM172.765 322.284C172.385 322.284 172.021 322.435 171.752 322.704C171.483 322.972 171.332 323.337 171.332 323.717V355.7C171.332 356.08 171.483 356.444 171.752 356.712C172.021 356.981 172.385 357.132 172.765 357.132H301.777C302.157 357.132 302.521 356.981 302.79 356.712C303.059 356.444 303.21 356.08 303.21 355.7V323.717C303.21 323.337 303.059 322.972 302.79 322.704C302.521 322.435 302.157 322.284 301.777 322.284H172.765Z" fill="#E6E6E6"/>
<path d="M212.663 333.022C212.22 333.022 211.794 333.198 211.481 333.512C211.167 333.825 210.991 334.25 210.991 334.693C210.991 335.137 211.167 335.562 211.481 335.875C211.794 336.189 212.22 336.365 212.663 336.365H291.503C291.722 336.373 291.941 336.338 292.147 336.262C292.353 336.186 292.542 336.07 292.704 335.921C292.865 335.772 292.995 335.592 293.087 335.393C293.178 335.193 293.23 334.978 293.238 334.758C293.247 334.539 293.212 334.32 293.136 334.114C293.059 333.908 292.943 333.719 292.794 333.558C292.645 333.397 292.465 333.267 292.266 333.175C292.066 333.084 291.85 333.032 291.631 333.024C291.606 333.023 291.582 333.022 291.557 333.023L212.663 333.022Z" fill="#E6E6E6"/>
<path d="M212.663 343.051C212.22 343.051 211.794 343.227 211.481 343.54C211.167 343.854 210.991 344.279 210.991 344.722C210.991 345.165 211.167 345.591 211.481 345.904C211.794 346.218 212.22 346.394 212.663 346.394H291.503C291.722 346.402 291.941 346.367 292.147 346.291C292.353 346.215 292.542 346.099 292.704 345.95C292.865 345.8 292.995 345.621 293.087 345.421C293.178 345.222 293.23 345.006 293.238 344.787C293.247 344.568 293.212 344.349 293.136 344.143C293.059 343.937 292.943 343.748 292.794 343.587C292.645 343.426 292.465 343.296 292.266 343.204C292.066 343.112 291.85 343.061 291.631 343.052C291.606 343.052 291.582 343.051 291.557 343.051H212.663L212.663 343.051Z" fill="#E6E6E6"/>
<path d="M188.86 242.749C194.402 242.749 198.894 238.259 198.894 232.72C198.894 227.182 194.402 222.692 188.86 222.692C183.319 222.692 178.826 227.182 178.826 232.72C178.826 238.259 183.319 242.749 188.86 242.749Z" fill="#B24CC2"/>
<path d="M184.057 230.847C183.941 230.847 183.848 231.596 183.848 232.518C183.848 233.441 183.941 234.19 184.057 234.19H193.923C194.039 234.205 194.134 233.469 194.136 232.547C194.2 231.972 194.13 231.391 193.93 230.848H184.057V230.847Z" fill="#E6E6E6"/>
<path d="M188.86 296.253C194.402 296.253 198.894 291.763 198.894 286.225C198.894 280.687 194.402 276.197 188.86 276.197C183.319 276.197 178.826 280.687 178.826 286.225C178.826 291.763 183.319 296.253 188.86 296.253Z" fill="#B24CC2"/>
<path d="M184.057 284.352C183.941 284.352 183.848 285.1 183.848 286.023C183.848 286.946 183.941 287.695 184.057 287.695H193.923C194.039 287.71 194.134 286.974 194.136 286.051C194.2 285.477 194.13 284.895 193.93 284.353L184.057 284.352Z" fill="#E6E6E6"/>
<path d="M188.86 349.736C194.402 349.736 198.894 345.246 198.894 339.708C198.894 334.169 194.402 329.68 188.86 329.68C183.319 329.68 178.826 334.169 178.826 339.708C178.826 345.246 183.319 349.736 188.86 349.736Z" fill="#B24CC2"/>
<path d="M184.057 337.835C183.941 337.835 183.848 338.583 183.848 339.506C183.848 340.428 183.941 341.177 184.057 341.177H193.923C194.039 341.193 194.134 340.457 194.136 339.534C194.2 338.959 194.13 338.378 193.93 337.835L184.057 337.835Z" fill="#E6E6E6"/>
<path d="M222.579 108.908L219.028 112.456L248.765 142.176L252.316 138.627L222.579 108.908Z" fill="white"/>
<path d="M252.316 112.456L248.765 108.908L219.028 138.627L222.579 142.176L252.316 112.456Z" fill="white"/>
<path d="M12.654 286.135C13.5238 285.828 14.3156 285.333 14.9735 284.686C15.6315 284.04 16.1395 283.257 16.462 282.393C16.7844 281.529 16.9133 280.605 16.8397 279.685C16.766 278.766 16.4916 277.874 16.0358 277.072L30.8272 260.221L19.2807 258.629L7.00474 274.875C5.70772 275.73 4.76945 277.03 4.36773 278.53C3.966 280.03 4.12874 281.625 4.82508 283.013C5.52142 284.401 6.703 285.485 8.14591 286.061C9.58882 286.636 11.1928 286.663 12.654 286.135Z" fill="#9F616A"/>
<path d="M30.4924 435.484L20.1765 435.483L15.2686 395.716L30.4943 395.717L30.4924 435.484Z" fill="#9F616A"/>
<path d="M33.1234 445.478L-0.14035 445.477V445.056C-0.140111 441.625 1.22403 438.334 3.65205 435.907C6.08006 433.481 9.37308 432.117 12.8068 432.117H12.8076L33.124 432.118L33.1234 445.478Z" fill="#2F2E41"/>
<path d="M84.4942 426.856L74.6421 429.913L58.1555 393.389L72.6963 388.877L84.4942 426.856Z" fill="#9F616A"/>
<path d="M89.9723 435.621L58.2045 445.478L58.0797 445.076C57.0617 441.799 57.388 438.252 58.9868 435.215C60.5856 432.178 63.3259 429.9 66.6052 428.882L66.606 428.882L86.0087 422.862L89.9723 435.621Z" fill="#2F2E41"/>
<path d="M22.5924 252.141L7.31396 269.628L19.2751 270.704L22.5924 252.141Z" fill="#E6E6E6"/>
<path d="M16.6225 274.681C16.6225 274.681 11.3155 277.333 10.652 289.267C9.98859 301.201 12.6424 332.363 12.6424 332.363C12.6424 332.363 9.98921 346.285 12.6424 358.881C15.2956 371.478 9.98921 417.221 13.3059 417.221C16.6225 417.221 33.8699 419.21 34.5334 417.221C35.1968 415.231 35.8603 385.398 35.8603 385.398C35.8603 385.398 41.1673 370.15 35.8603 360.87C35.8603 360.87 54.3899 393.207 66.3749 417.886C68.9979 423.287 88.9293 417.222 85.6127 411.256C82.296 405.289 74.3358 378.107 74.3358 378.107C74.3358 378.107 68.3653 358.218 57.7519 349.599L63.0589 307.169C63.0589 307.169 74.3364 278.661 67.7037 274.683C61.071 270.706 16.6225 274.681 16.6225 274.681Z" fill="#2F2E41"/>
<path d="M36.5231 166.616C46.0486 166.616 53.7705 158.899 53.7705 149.379C53.7705 139.86 46.0486 132.142 36.5231 132.142C26.9976 132.142 19.2757 139.86 19.2757 149.379C19.2757 158.899 26.9976 166.616 36.5231 166.616Z" fill="#A0616A"/>
<path d="M55.7608 167.943L34.3193 180.539C34.3193 180.539 26.1093 185.159 23.0424 193.135C19.7735 201.635 21.6735 213.603 23.0424 216.339C25.6956 221.643 21.9296 234.902 21.9296 234.902L18.6129 265.399C18.6129 265.399 6.67254 276.669 15.9597 277.995C25.2468 279.321 41.8308 277.332 51.7814 277.995C61.732 278.658 73.0089 279.984 69.6922 273.353C66.3755 266.722 62.3954 262.082 66.3755 248.825C69.4901 238.45 69.3551 199.655 69.1493 183.272C69.1209 181.022 68.5171 178.817 67.3953 176.866C66.2734 174.915 64.6709 173.284 62.74 172.127L55.7608 167.943Z" fill="#E5E5E5"/>
<path opacity="0.1" d="M46.1448 188.827L48.1346 229.268L28.8485 268.3L25.5776 267.057L45.4788 230.593L46.1448 188.827Z" fill="black"/>
<path opacity="0.1" d="M68.0332 237.886V233.244L45.4814 270.371L68.0332 237.886Z" fill="black"/>
<path d="M24.2821 133.411L21.4331 132.272C21.4331 132.272 27.396 125.712 35.6896 126.283L33.3565 123.716C33.3565 123.716 39.0589 121.434 44.2436 127.423C46.969 130.572 50.1218 134.273 52.0896 138.441H55.1432L53.869 141.246L58.3293 144.05L53.751 143.549C54.1847 145.97 54.0362 148.459 53.3179 150.812L53.4435 153.029C53.4435 153.029 48.1339 144.818 48.1339 143.679V146.531C48.1339 146.531 45.2824 143.964 45.2824 142.253L43.727 144.25L42.9493 141.113L33.3583 144.25L34.9125 141.682L28.9495 142.537L31.2826 139.401C31.2826 139.401 24.5432 143.108 24.284 146.246C24.0247 149.384 20.6554 153.376 20.6554 153.376L19.1 150.524C19.1 150.524 16.7675 137.69 24.2821 133.411Z" fill="#2F2E41"/>
<path d="M35.4408 288.011C36.2422 287.554 36.9335 286.927 37.4662 286.174C37.9988 285.421 38.3598 284.56 38.5236 283.653C38.6874 282.745 38.6502 281.813 38.4144 280.921C38.1787 280.03 37.7502 279.201 37.1592 278.492L48.7227 259.284L37.0769 259.766L27.8814 277.932C26.7568 279.004 26.0644 280.45 25.9355 281.997C25.8065 283.544 26.2499 285.085 27.1817 286.327C28.1135 287.57 29.4689 288.427 30.9911 288.738C32.5133 289.048 34.0965 288.79 35.4408 288.011Z" fill="#9F616A"/>
<path d="M61.732 176.562L66.707 175.568C66.707 175.568 81.6326 186.507 76.989 208.385C72.3454 230.263 51.7814 263.411 51.7814 263.411C51.7814 263.411 47.1365 269.378 45.8109 270.704C44.4852 272.029 41.8308 270.704 43.1577 272.693C44.4846 274.682 41.1673 276.008 41.1673 276.008C41.1673 276.008 26.5731 276.008 27.9001 270.704C29.227 265.4 51.7814 227.608 51.7814 227.608L48.4647 192.471C48.4647 192.471 45.8103 175.236 61.732 176.562Z" fill="#E5E5E5"/>
</g>
<defs>
<clipPath id="clip0_40_1393">
<rect width="348" height="447" fill="white"/>
</clipPath>
</defs>
</svg>
