<svg width="48" height="45" viewBox="0 0 48 45" fill="none" xmlns="http://www.w3.org/2000/svg">
<path d="M12.675 9.28386L10.2281 16.6106H37.7719L35.325 9.28386C34.9031 8.02672 33.7687 7.18208 32.4938 7.18208H15.5062C14.2312 7.18208 13.0969 8.02672 12.675 9.28386ZM3.7125 17.0821L7.0125 7.21154C8.27813 3.43029 11.6812 0.896362 15.5062 0.896362H32.4938C36.3188 0.896362 39.7219 3.43029 40.9875 7.21154L44.2875 17.0821C46.4625 18.0249 48 20.274 48 22.8964V37.0392V41.7535C48 43.4919 46.6594 44.8964 45 44.8964H42C40.3406 44.8964 39 43.4919 39 41.7535V37.0392H9V41.7535C9 43.4919 7.65938 44.8964 6 44.8964H3C1.34062 44.8964 0 43.4919 0 41.7535V37.0392V22.8964C0 20.274 1.5375 18.0249 3.7125 17.0821ZM12 26.0392C12 25.2057 11.6839 24.4063 11.1213 23.8169C10.5587 23.2275 9.79565 22.8964 9 22.8964C8.20435 22.8964 7.44129 23.2275 6.87868 23.8169C6.31607 24.4063 6 25.2057 6 26.0392C6 26.8728 6.31607 27.6722 6.87868 28.2616C7.44129 28.851 8.20435 29.1821 9 29.1821C9.79565 29.1821 10.5587 28.851 11.1213 28.2616C11.6839 27.6722 12 26.8728 12 26.0392ZM39 29.1821C39.7957 29.1821 40.5587 28.851 41.1213 28.2616C41.6839 27.6722 42 26.8728 42 26.0392C42 25.2057 41.6839 24.4063 41.1213 23.8169C40.5587 23.2275 39.7957 22.8964 39 22.8964C38.2043 22.8964 37.4413 23.2275 36.8787 23.8169C36.3161 24.4063 36 25.2057 36 26.0392C36 26.8728 36.3161 27.6722 36.8787 28.2616C37.4413 28.851 38.2043 29.1821 39 29.1821Z" fill="black"/>
</svg>
