<svg width="66" height="65" viewBox="0 0 66 65" fill="none" xmlns="http://www.w3.org/2000/svg">
<g clip-path="url(#clip0_69_1905)">
<path d="M17.6641 14.9043L14.3506 24.375H51.6494L48.3359 14.9043C47.7646 13.2793 46.2285 12.1875 44.502 12.1875H21.498C19.7715 12.1875 18.2354 13.2793 17.6641 14.9043ZM5.52734 24.9844L9.99609 12.2256C11.71 7.33789 16.3184 4.0625 21.498 4.0625H44.502C49.6816 4.0625 54.29 7.33789 56.0039 12.2256L60.4727 24.9844C63.418 26.2031 65.5 29.1104 65.5 32.5V50.7812V56.875C65.5 59.1221 63.6846 60.9375 61.4375 60.9375H57.375C55.1279 60.9375 53.3125 59.1221 53.3125 56.875V50.7812H12.6875V56.875C12.6875 59.1221 10.8721 60.9375 8.625 60.9375H4.5625C2.31543 60.9375 0.5 59.1221 0.5 56.875V50.7812V32.5C0.5 29.1104 2.58203 26.2031 5.52734 24.9844ZM16.75 36.5625C16.75 35.4851 16.322 34.4517 15.5601 33.6899C14.7983 32.928 13.7649 32.5 12.6875 32.5C11.6101 32.5 10.5767 32.928 9.81488 33.6899C9.05301 34.4517 8.625 35.4851 8.625 36.5625C8.625 37.6399 9.05301 38.6733 9.81488 39.4351C10.5767 40.197 11.6101 40.625 12.6875 40.625C13.7649 40.625 14.7983 40.197 15.5601 39.4351C16.322 38.6733 16.75 37.6399 16.75 36.5625ZM53.3125 40.625C54.3899 40.625 55.4233 40.197 56.1851 39.4351C56.947 38.6733 57.375 37.6399 57.375 36.5625C57.375 35.4851 56.947 34.4517 56.1851 33.6899C55.4233 32.928 54.3899 32.5 53.3125 32.5C52.2351 32.5 51.2017 32.928 50.4399 33.6899C49.678 34.4517 49.25 35.4851 49.25 36.5625C49.25 37.6399 49.678 38.6733 50.4399 39.4351C51.2017 40.197 52.2351 40.625 53.3125 40.625Z" fill="white"/>
</g>
<defs>
<clipPath id="clip0_69_1905">
<rect width="65" height="65" fill="white" transform="translate(0.5)"/>
</clipPath>
</defs>
</svg>
