<svg width="65" height="65" viewBox="0 0 65 65" fill="none" xmlns="http://www.w3.org/2000/svg">
<g clip-path="url(#clip0_69_1918)">
<path d="M32.5 0C41.1195 0 49.386 3.4241 55.481 9.51903C61.5759 15.614 65 23.8805 65 32.5C65 41.1195 61.5759 49.386 55.481 55.481C49.386 61.5759 41.1195 65 32.5 65C23.8805 65 15.614 61.5759 9.51903 55.481C3.4241 49.386 0 41.1195 0 32.5C0 23.8805 3.4241 15.614 9.51903 9.51903C15.614 3.4241 23.8805 0 32.5 0ZM29.4531 15.2344V32.5C29.4531 33.5156 29.9609 34.4678 30.8115 35.0391L42.999 43.1641C44.3955 44.1035 46.2871 43.7227 47.2266 42.3135C48.166 40.9043 47.7852 39.0254 46.376 38.0859L35.5469 30.875V15.2344C35.5469 13.5459 34.1885 12.1875 32.5 12.1875C30.8115 12.1875 29.4531 13.5459 29.4531 15.2344Z" fill="white"/>
</g>
<defs>
<clipPath id="clip0_69_1918">
<rect width="65" height="65" fill="white"/>
</clipPath>
</defs>
</svg>
