<svg width="192" height="25" viewBox="0 0 192 25" fill="none" xmlns="http://www.w3.org/2000/svg">
<g clip-path="url(#clip0_138_128)">
<g clip-path="url(#clip1_138_128)">
<g clip-path="url(#clip2_138_128)">
<path d="M27.5864 5.18182C27.5864 4.13331 27.2338 3.28333 26.7989 3.28333C26.3639 3.28333 26.0114 4.13331 26.0114 5.18182V18.8899C26.0114 19.9384 26.3639 20.7884 26.7989 20.7884C27.2338 20.7884 27.5864 19.9384 27.5864 18.8899V5.18182Z" fill="white"/>
<g clip-path="url(#clip3_138_128)">
<g clip-path="url(#clip4_138_128)">
<g clip-path="url(#clip5_138_128)">
<g clip-path="url(#clip6_138_128)">
<path d="M37.2303 20.4482H33.1792V18.6583H37.1534C38.6029 18.6583 39.6935 18.2645 40.4251 17.477C41.1567 16.686 41.5225 15.5576 41.5225 14.0916V10.4505C41.5225 8.97425 41.1567 7.84408 40.4251 7.05994C39.6935 6.27581 38.6029 5.88374 37.1534 5.88374H33.1639V4.10921H37.2303C39.3499 4.10921 40.9515 4.65299 42.0353 5.74055C43.1224 6.8247 43.666 8.38956 43.666 10.4351V14.1069C43.666 16.1423 43.1224 17.7088 42.0353 18.8066C40.9515 19.901 39.3499 20.4482 37.2303 20.4482ZM33.8459 20.4482H31.7434V4.10921H33.8459V20.4482ZM48.635 12.8131L48.1632 11.2176L48.676 11.192C48.9495 10.1351 49.4196 9.30154 50.0862 8.69128C50.7528 8.08102 51.6365 7.77589 52.7374 7.77589C53.0108 7.77589 53.257 7.79805 53.4758 7.84237C53.6946 7.88328 53.8894 7.93442 54.0604 7.99579L54.1886 10.0004C53.9732 9.93226 53.7356 9.87771 53.4758 9.8368C53.216 9.79248 52.9271 9.77032 52.6092 9.77032C51.669 9.77032 50.852 10.0311 50.158 10.5527C49.4606 11.0744 48.9529 11.8278 48.635 12.8131ZM48.7375 20.4482H46.6607V7.97022H48.6863L48.5837 11.6522L48.7375 11.8057V20.4482ZM58.3422 20.4482H56.2654V7.97022H58.3422V20.4482ZM57.3013 5.92465C56.8739 5.92465 56.556 5.81215 56.3475 5.58713C56.1389 5.35871 56.0346 5.04847 56.0346 4.6564V4.59503C56.0346 4.19274 56.1389 3.88079 56.3475 3.65919C56.556 3.43758 56.8739 3.32678 57.3013 3.32678C57.7286 3.32678 58.0499 3.43758 58.2653 3.65919C58.4773 3.88079 58.5832 4.19274 58.5832 4.59503V4.6564C58.5832 5.0587 58.4773 5.37064 58.2653 5.59225C58.0499 5.81385 57.7286 5.92465 57.3013 5.92465ZM66.2598 19.0265H66.5675L70.0289 7.97022H72.1827L68.1213 20.4482H64.7112L60.6447 7.97022H62.7984L66.2598 19.0265ZM79.6951 20.7294C77.791 20.7294 76.3551 20.2641 75.3876 19.3333C74.4236 18.406 73.9415 17.0764 73.9415 15.3445V13.1199C73.9415 11.3642 74.3894 10.0124 75.2851 9.0646C76.1842 8.11341 77.4969 7.63781 79.2234 7.63781C80.3857 7.63781 81.3549 7.8526 82.1309 8.28217C82.9104 8.71174 83.4967 9.3237 83.8898 10.1181C84.283 10.909 84.4795 11.8551 84.4795 12.9563V13.4165C84.4795 13.6893 84.4676 13.962 84.4436 14.2348C84.4231 14.5075 84.3958 14.7751 84.3616 15.0377H82.454C82.4711 14.6285 82.4813 14.2416 82.4848 13.8768C82.4882 13.5086 82.4899 13.1711 82.4899 12.8642C82.4899 12.1074 82.3685 11.4664 82.1258 10.9414C81.8831 10.4164 81.519 10.0158 81.0335 9.73963C80.5515 9.46348 79.9481 9.32541 79.2234 9.32541C78.1465 9.32541 77.338 9.63565 76.7978 10.2561C76.2611 10.88 75.9927 11.7716 75.9927 12.9307V14.1171L76.003 14.3728V15.5644C76.003 16.0826 76.0799 16.5514 76.2338 16.9707C76.3876 17.3866 76.6286 17.7463 76.9568 18.0497C77.2884 18.3532 77.7072 18.5833 78.2132 18.7401C78.7225 18.897 79.3276 18.9754 80.0285 18.9754C80.8421 18.9754 81.5993 18.8697 82.3002 18.6583C83.001 18.4435 83.6591 18.1537 84.2744 17.7889L84.0796 19.5788C83.5257 19.9266 82.8813 20.2061 82.1463 20.4175C81.4113 20.6255 80.5942 20.7294 79.6951 20.7294ZM83.9257 15.0377H75.0287V13.4779H83.9257V15.0377ZM92.0536 20.7448C91.2673 20.7448 90.5477 20.68 89.8947 20.5505C89.2383 20.4209 88.6537 20.2624 88.1409 20.0749C87.6281 19.8874 87.2008 19.6998 86.8589 19.5123L86.6435 17.4054C87.2999 17.7975 88.076 18.1401 88.9717 18.4333C89.8639 18.7265 90.8348 18.8731 91.8843 18.8731C93.1492 18.8731 94.086 18.6498 94.6945 18.2032C95.2996 17.7566 95.6021 17.0849 95.6021 16.1883V15.9888C95.6021 15.399 95.4825 14.9166 95.2432 14.5416C95.0039 14.1666 94.6005 13.8512 94.033 13.5955C93.4655 13.3398 92.6946 13.1012 91.7202 12.8796C90.4895 12.5898 89.505 12.2472 88.7665 11.8517C88.0247 11.4528 87.4897 10.955 87.1615 10.3584C86.8333 9.76179 86.6692 9.02028 86.6692 8.13386V8.02136C86.6692 6.68151 87.1085 5.6485 87.9871 4.92232C88.8691 4.19274 90.2024 3.82795 91.9869 3.82795C93.1595 3.82795 94.1577 3.94727 94.9816 4.18592C95.8055 4.42457 96.479 4.68879 97.0021 4.97858L97.1918 6.92187C96.5867 6.56389 95.8807 6.25876 95.0739 6.00647C94.2637 5.75419 93.3373 5.62804 92.2946 5.62804C91.4673 5.62804 90.7972 5.72691 90.2844 5.92465C89.7716 6.11898 89.399 6.40025 89.1665 6.76845C88.9375 7.13324 88.8229 7.57645 88.8229 8.09807V8.14921C88.8229 8.67764 88.9358 9.12937 89.1614 9.50439C89.387 9.87941 89.7853 10.2033 90.3562 10.476C90.9237 10.7488 91.7322 11.013 92.7817 11.2687C93.9885 11.5483 94.9543 11.8721 95.6791 12.2403C96.4072 12.6051 96.9354 13.0824 97.2636 13.6722C97.5918 14.2586 97.7559 15.0257 97.7559 15.9735V16.2445C97.7559 17.7173 97.2807 18.8356 96.3303 19.5993C95.3765 20.3629 93.9509 20.7448 92.0536 20.7448ZM105.422 20.7294C103.627 20.7294 102.292 20.2453 101.417 19.2771C100.542 18.3089 100.104 16.9383 100.104 15.1655V13.2222C100.104 11.4426 100.544 10.0737 101.422 9.11574C102.304 8.15432 103.638 7.67361 105.422 7.67361C105.952 7.67361 106.436 7.72305 106.873 7.82191C107.308 7.92078 107.697 8.04863 108.043 8.20546C108.391 8.36229 108.685 8.52593 108.925 8.6964L109.104 10.5016C108.701 10.1948 108.224 9.93396 107.673 9.71918C107.123 9.5078 106.475 9.40212 105.73 9.40212C104.533 9.40212 103.643 9.73282 103.058 10.3942C102.474 11.0522 102.181 12.0119 102.181 13.2734V15.1144C102.181 16.3519 102.474 17.3031 103.058 17.9679C103.643 18.6327 104.533 18.9651 105.73 18.9651C106.499 18.9651 107.164 18.8577 107.725 18.643C108.285 18.4316 108.783 18.1725 109.217 17.8656L109.027 19.6913C108.651 19.947 108.159 20.184 107.55 20.4022C106.945 20.6203 106.236 20.7294 105.422 20.7294ZM122.175 20.4482H120.098V12.6852C120.098 12.0136 120.008 11.4357 119.827 10.9516C119.642 10.4641 119.343 10.0857 118.929 9.81634C118.512 9.54701 117.945 9.41234 117.227 9.41234C116.57 9.41234 116.003 9.53678 115.524 9.78566C115.046 10.0311 114.659 10.3652 114.365 10.788C114.068 11.2107 113.859 11.6914 113.74 12.2301L113.278 10.7573H113.817C113.947 10.1948 114.183 9.68168 114.524 9.21801C114.866 8.75094 115.326 8.37933 115.904 8.10318C116.478 7.82703 117.181 7.68895 118.011 7.68895C119.003 7.68895 119.804 7.87646 120.416 8.25148C121.025 8.6265 121.471 9.16517 121.755 9.86748C122.035 10.5698 122.175 11.4323 122.175 12.4551V20.4482ZM113.806 20.4482H111.73V3.50577H113.791V7.57133L113.73 11.1511L113.806 11.3198V20.4482ZM130.652 20.7294C128.744 20.7294 127.308 20.2641 126.344 19.3333C125.377 18.406 124.893 17.0764 124.893 15.3445V13.1199C124.893 11.3642 125.343 10.0124 126.242 9.0646C127.137 8.11341 128.449 7.63781 130.175 7.63781C131.337 7.63781 132.308 7.8526 133.088 8.28217C133.864 8.71174 134.448 9.3237 134.841 10.1181C135.235 10.909 135.431 11.8551 135.431 12.9563V13.4165C135.431 13.6893 135.421 13.962 135.4 14.2348C135.38 14.5075 135.353 14.7751 135.318 15.0377H133.406C133.423 14.6285 133.433 14.2416 133.436 13.8768C133.443 13.5086 133.447 13.1711 133.447 12.8642C133.447 12.1074 133.324 11.4664 133.077 10.9414C132.835 10.4164 132.472 10.0158 131.99 9.73963C131.508 9.46348 130.903 9.32541 130.175 9.32541C129.098 9.32541 128.291 9.63565 127.755 10.2561C127.214 10.88 126.944 11.7716 126.944 12.9307V14.1171L126.96 14.3728V15.5644C126.96 16.0826 127.037 16.5514 127.19 16.9707C127.344 17.3866 127.585 17.7463 127.914 18.0497C128.242 18.3532 128.661 18.5833 129.17 18.7401C129.679 18.897 130.284 18.9754 130.985 18.9754C131.795 18.9754 132.551 18.8697 133.252 18.6583C133.953 18.4435 134.611 18.1537 135.226 17.7889L135.036 19.5788C134.479 19.9266 133.833 20.2061 133.098 20.4175C132.363 20.6255 131.548 20.7294 130.652 20.7294ZM134.882 15.0377H125.985V13.4779H134.882V15.0377ZM142.328 20.7192C140.824 20.7192 139.679 20.2538 138.893 19.3231C138.106 18.3924 137.713 17.0372 137.713 15.2576V13.1966C137.713 11.4068 138.11 10.0414 138.903 9.10039C139.699 8.15943 140.87 7.68895 142.415 7.68895C143.185 7.68895 143.851 7.81851 144.415 8.07761C144.979 8.33672 145.438 8.70151 145.79 9.17199C146.138 9.63906 146.373 10.1931 146.492 10.834H147.174L146.559 12.7364C146.532 12.0034 146.367 11.388 146.067 10.8903C145.762 10.3925 145.352 10.0158 144.836 9.76009C144.316 9.50439 143.723 9.37655 143.056 9.37655C141.997 9.37655 141.188 9.68338 140.631 10.2971C140.07 10.9107 139.79 11.8142 139.79 13.0074V15.3854C139.79 16.5616 140.07 17.4565 140.631 18.0702C141.188 18.6839 141.997 18.9907 143.056 18.9907C143.689 18.9907 144.25 18.8697 144.738 18.6276C145.224 18.3822 145.627 18.0446 145.949 17.6151C146.27 17.1855 146.49 16.698 146.61 16.1525L147.123 17.6355H146.508C146.388 18.1981 146.159 18.7129 145.82 19.1799C145.482 19.6504 145.029 20.0237 144.462 20.2999C143.894 20.5794 143.183 20.7192 142.328 20.7192ZM148.584 20.4482H146.508L146.595 17.431L146.559 16.7662V11.55L146.569 11.1153L146.518 7.57133V3.50577H148.584V20.4482ZM151.815 7.97022H153.876V15.7331C153.876 16.3877 153.969 16.9605 154.153 17.4514C154.338 17.9424 154.639 18.3208 155.056 18.5867C155.476 18.856 156.04 18.9907 156.748 18.9907C157.415 18.9907 157.987 18.8697 158.466 18.6276C158.945 18.3822 159.336 18.0463 159.64 17.6202C159.945 17.194 160.151 16.7133 160.261 16.1781L160.635 17.6457H160.184C160.057 18.2083 159.823 18.7231 159.481 19.1902C159.14 19.6538 158.68 20.0237 158.102 20.2999C157.524 20.5794 156.813 20.7192 155.969 20.7192C154.984 20.7192 154.186 20.5334 153.574 20.1618C152.965 19.7902 152.519 19.2481 152.236 18.5356C151.955 17.823 151.815 16.9639 151.815 15.9582V7.97022ZM160.174 7.97022H162.25V20.4482H160.174L160.261 17.4565L160.174 17.3287V7.97022ZM167.758 20.4482H165.696V3.50577H167.758V20.4482ZM176.465 20.7294C174.558 20.7294 173.122 20.2641 172.158 19.3333C171.19 18.406 170.707 17.0764 170.707 15.3445V13.1199C170.707 11.3642 171.156 10.0124 172.055 9.0646C172.951 8.11341 174.262 7.63781 175.988 7.63781C177.151 7.63781 178.122 7.8526 178.901 8.28217C179.677 8.71174 180.262 9.3237 180.655 10.1181C181.048 10.909 181.245 11.8551 181.245 12.9563V13.4165C181.245 13.6893 181.234 13.962 181.214 14.2348C181.193 14.5075 181.166 14.7751 181.132 15.0377H179.219C179.236 14.6285 179.246 14.2416 179.25 13.8768C179.257 13.5086 179.26 13.1711 179.26 12.8642C179.26 12.1074 179.137 11.4664 178.891 10.9414C178.648 10.4164 178.286 10.0158 177.804 9.73963C177.322 9.46348 176.717 9.32541 175.988 9.32541C174.911 9.32541 174.105 9.63565 173.568 10.2561C173.028 10.88 172.758 11.7716 172.758 12.9307V14.1171L172.773 14.3728V15.5644C172.773 16.0826 172.85 16.5514 173.004 16.9707C173.158 17.3866 173.399 17.7463 173.727 18.0497C174.055 18.3532 174.474 18.5833 174.983 18.7401C175.493 18.897 176.098 18.9754 176.799 18.9754C177.609 18.9754 178.364 18.8697 179.065 18.6583C179.766 18.4435 180.424 18.1537 181.039 17.7889L180.85 19.5788C180.292 19.9266 179.646 20.2061 178.911 20.4175C178.176 20.6255 177.361 20.7294 176.465 20.7294ZM180.696 15.0377H171.799V13.4779H180.696V15.0377ZM185.988 12.8131L185.511 11.2176L186.024 11.192C186.297 10.1351 186.767 9.30154 187.434 8.69128C188.101 8.08102 188.986 7.77589 190.09 7.77589C190.364 7.77589 190.61 7.79805 190.829 7.84237C191.044 7.88328 191.237 7.93442 191.408 7.99579L191.536 10.0004C191.324 9.93226 191.089 9.87771 190.829 9.8368C190.565 9.79248 190.277 9.77032 189.962 9.77032C189.022 9.77032 188.203 10.0311 187.506 10.5527C186.808 11.0744 186.302 11.8278 185.988 12.8131ZM186.09 20.4482H184.014V7.97022H186.039L185.937 11.6522L186.09 11.8057V20.4482Z" fill="white"/>
</g>
</g>
</g>
</g>
<g clip-path="url(#clip7_138_128)">
<g clip-path="url(#clip8_138_128)">
<path d="M18.7846 8.25317H4.30188V20.9768H18.7846V8.25317ZM16.3708 12.2078H6.71567V11.1762H16.3708V12.2078Z" fill="white"/>
<path d="M18.2674 3.43881V0H15.8536V3.43881H7.23295V0H4.81917V3.43881H1.19849V24.0717H21.8881V3.43881H18.2674ZM19.8191 22.0084H3.26745V7.2215H19.8191V22.0084Z" fill="white"/>
</g>
</g>
</g>
</g>
</g>
<defs>
<clipPath id="clip0_138_128">
<rect width="191" height="24" fill="white" transform="translate(0.884277 0.0358887)"/>
</clipPath>
<clipPath id="clip1_138_128">
<rect width="190.372" height="24.0717" fill="white" transform="translate(1.19849)"/>
</clipPath>
<clipPath id="clip2_138_128">
<rect width="190.372" height="24.0717" fill="white" transform="translate(1.19849)"/>
</clipPath>
<clipPath id="clip3_138_128">
<rect width="159.86" height="17.418" fill="white" transform="translate(31.7097 3.32678)"/>
</clipPath>
<clipPath id="clip4_138_128">
<rect width="159.86" height="17.418" fill="white" transform="translate(31.7097 3.32678)"/>
</clipPath>
<clipPath id="clip5_138_128">
<rect width="159.86" height="17.418" fill="white" transform="translate(31.7097 3.32678)"/>
</clipPath>
<clipPath id="clip6_138_128">
<rect width="159.86" height="17.418" fill="white" transform="translate(31.7097 3.32678)"/>
</clipPath>
<clipPath id="clip7_138_128">
<rect width="20.6896" height="24.0717" fill="white" transform="translate(1.19849)"/>
</clipPath>
<clipPath id="clip8_138_128">
<rect width="20.6896" height="24.0717" fill="white" transform="translate(1.19849)"/>
</clipPath>
</defs>
</svg>
