<svg width="191" height="24" viewBox="0 0 191 24" fill="none" xmlns="http://www.w3.org/2000/svg">
<g clip-path="url(#clip0_32_3)">
<g clip-path="url(#clip1_32_3)">
<g clip-path="url(#clip2_32_3)">
<g clip-path="url(#clip3_32_3)">
<path d="M26.5863 5.18179C26.5863 4.13328 26.2337 3.28329 25.7988 3.28329C25.3638 3.28329 25.0112 4.13328 25.0112 5.18179V18.8899C25.0112 19.9384 25.3638 20.7884 25.7988 20.7884C26.2337 20.7884 26.5863 19.9384 26.5863 18.8899V5.18179Z" fill="black"/>
<g clip-path="url(#clip4_32_3)">
<g clip-path="url(#clip5_32_3)">
<g clip-path="url(#clip6_32_3)">
<g clip-path="url(#clip7_32_3)">
<path d="M36.2302 20.4482H32.1791V18.6584H36.1533C37.6028 18.6584 38.6934 18.2646 39.425 17.4771C40.1565 16.6861 40.5223 15.5576 40.5223 14.0916V10.4505C40.5223 8.97431 40.1565 7.84414 39.425 7.06C38.6934 6.27587 37.6028 5.8838 36.1533 5.8838H32.1637V4.10927H36.2302C38.3498 4.10927 39.9514 4.65305 41.0351 5.74061C42.1223 6.82476 42.6658 8.38962 42.6658 10.4352V14.107C42.6658 16.1423 42.1223 17.7089 41.0351 18.8067C39.9514 19.901 38.3498 20.4482 36.2302 20.4482ZM32.8458 20.4482H30.7433V4.10927H32.8458V20.4482ZM47.6348 12.8132L47.1631 11.2176L47.6759 11.192C47.9494 10.1352 48.4194 9.3016 49.0861 8.69134C49.7527 8.08108 50.6364 7.77595 51.7372 7.77595C52.0107 7.77595 52.2569 7.79811 52.4757 7.84243C52.6945 7.88334 52.8893 7.93448 53.0603 7.99585L53.1884 10.0005C52.9731 9.93232 52.7355 9.87777 52.4757 9.83686C52.2158 9.79254 51.927 9.77038 51.609 9.77038C50.6689 9.77038 49.8518 10.0312 49.1579 10.5528C48.4605 11.0744 47.9528 11.8279 47.6348 12.8132ZM47.7374 20.4482H45.6606V7.97028H47.6861L47.5836 11.6523L47.7374 11.8057V20.4482ZM57.3421 20.4482H55.2653V7.97028H57.3421V20.4482ZM56.3011 5.92471C55.8738 5.92471 55.5559 5.81221 55.3473 5.58719C55.1388 5.35877 55.0345 5.04853 55.0345 4.65646V4.59509C55.0345 4.1928 55.1388 3.88085 55.3473 3.65925C55.5559 3.43764 55.8738 3.32684 56.3011 3.32684C56.7285 3.32684 57.0498 3.43764 57.2652 3.65925C57.4771 3.88085 57.5831 4.1928 57.5831 4.59509V4.65646C57.5831 5.05876 57.4771 5.37071 57.2652 5.59231C57.0498 5.81391 56.7285 5.92471 56.3011 5.92471ZM65.2597 19.0266H65.5674L69.0288 7.97028H71.1825L67.1212 20.4482H63.7111L59.6446 7.97028H61.7983L65.2597 19.0266ZM78.695 20.7295C76.7908 20.7295 75.355 20.2641 74.3875 19.3334C73.4235 18.4061 72.9414 17.0765 72.9414 15.3445V13.12C72.9414 11.3642 73.3893 10.0124 74.285 9.06466C75.1841 8.11347 76.4968 7.63788 78.2232 7.63788C79.3856 7.63788 80.3548 7.85266 81.1308 8.28223C81.9103 8.7118 82.4966 9.32376 82.8897 10.1181C83.2828 10.9091 83.4794 11.8552 83.4794 12.9563V13.4166C83.4794 13.6893 83.4675 13.9621 83.4435 14.2348C83.423 14.5076 83.3957 14.7752 83.3615 15.0377H81.4539C81.471 14.6286 81.4812 14.2416 81.4846 13.8769C81.4881 13.5087 81.4898 13.1711 81.4898 12.8643C81.4898 12.1074 81.3684 11.4665 81.1257 10.9415C80.883 10.4164 80.5189 10.0158 80.0334 9.73969C79.5514 9.46354 78.948 9.32547 78.2232 9.32547C77.1464 9.32547 76.3379 9.63571 75.7977 10.2562C75.261 10.8801 74.9926 11.7716 74.9926 12.9308V14.1172L75.0029 14.3729V15.5644C75.0029 16.0827 75.0798 16.5514 75.2336 16.9708C75.3875 17.3867 75.6285 17.7464 75.9567 18.0498C76.2883 18.3532 76.7071 18.5834 77.213 18.7402C77.7224 18.897 78.3275 18.9754 79.0283 18.9754C79.842 18.9754 80.5992 18.8697 81.3 18.6584C82.0009 18.4436 82.6589 18.1538 83.2743 17.789L83.0794 19.5789C82.5256 19.9266 81.8812 20.2062 81.1462 20.4176C80.4112 20.6255 79.5941 20.7295 78.695 20.7295ZM82.9256 15.0377H74.0286V13.478H82.9256V15.0377ZM91.0534 20.7448C90.2672 20.7448 89.5475 20.6801 88.8946 20.5505C88.2382 20.421 87.6536 20.2624 87.1408 20.0749C86.628 19.8874 86.2007 19.6999 85.8588 19.5124L85.6434 17.4055C86.2998 17.7975 87.0758 18.1402 87.9715 18.4334C88.8638 18.7266 89.8347 18.8732 90.8842 18.8732C92.1491 18.8732 93.0858 18.6498 93.6944 18.2032C94.2995 17.7566 94.602 17.085 94.602 16.1883V15.9889C94.602 15.3991 94.4824 14.9167 94.243 14.5417C94.0037 14.1666 93.6003 13.8513 93.0328 13.5956C92.4654 13.3399 91.6944 13.1012 90.7201 12.8796C89.4894 12.5899 88.5048 12.2472 87.7664 11.8517C87.0246 11.4529 86.4895 10.9551 86.1614 10.3585C85.8332 9.76186 85.6691 9.02034 85.6691 8.13392V8.02142C85.6691 6.68157 86.1084 5.64856 86.987 4.92238C87.869 4.1928 89.2022 3.82801 90.9868 3.82801C92.1594 3.82801 93.1576 3.94733 93.9815 4.18598C94.8054 4.42463 95.4789 4.68885 96.0019 4.97864L96.1917 6.92193C95.5866 6.56395 94.8806 6.25882 94.0738 6.00654C93.2636 5.75425 92.3372 5.62811 91.2945 5.62811C90.4671 5.62811 89.7971 5.72697 89.2843 5.92471C88.7715 6.11904 88.3989 6.40031 88.1664 6.76851C87.9373 7.1333 87.8228 7.57651 87.8228 8.09813V8.14927C87.8228 8.67771 87.9356 9.12943 88.1613 9.50446C88.3869 9.87948 88.7852 10.2034 89.3561 10.4761C89.9236 10.7488 90.7321 11.0131 91.7816 11.2688C92.9884 11.5483 93.9542 11.8722 94.6789 12.2404C95.4071 12.6052 95.9353 13.0825 96.2635 13.6723C96.5917 14.2587 96.7558 15.0258 96.7558 15.9736V16.2446C96.7558 17.7174 96.2806 18.8356 95.3302 19.5993C94.3764 20.363 92.9508 20.7448 91.0534 20.7448ZM104.422 20.7295C102.627 20.7295 101.292 20.2454 100.417 19.2771C99.542 18.3089 99.1044 16.9384 99.1044 15.1656V13.2223C99.1044 11.4426 99.5437 10.0738 100.422 9.1158C101.304 8.15438 102.638 7.67367 104.422 7.67367C104.952 7.67367 105.436 7.72311 105.873 7.82198C106.307 7.92085 106.697 8.04869 107.042 8.20552C107.391 8.36235 107.685 8.52599 107.924 8.69646L108.104 10.5017C107.701 10.1948 107.224 9.93402 106.673 9.71924C106.123 9.50786 105.475 9.40218 104.73 9.40218C103.533 9.40218 102.643 9.73288 102.058 10.3943C101.474 11.0523 101.181 12.012 101.181 13.2734V15.1144C101.181 16.352 101.474 17.3032 102.058 17.968C102.643 18.6328 103.533 18.9652 104.73 18.9652C105.499 18.9652 106.164 18.8578 106.725 18.643C107.285 18.4316 107.783 18.1725 108.217 17.8657L108.027 19.6914C107.651 19.9471 107.159 20.184 106.55 20.4022C105.945 20.6204 105.236 20.7295 104.422 20.7295ZM121.175 20.4482H119.098V12.6853C119.098 12.0137 119.008 11.4358 118.827 10.9517C118.642 10.4642 118.343 10.0857 117.929 9.8164C117.512 9.54707 116.945 9.4124 116.227 9.4124C115.57 9.4124 115.003 9.53684 114.524 9.78572C114.046 10.0312 113.659 10.3653 113.365 10.788C113.068 11.2108 112.859 11.6915 112.74 12.2302L112.278 10.7574H112.817C112.947 10.1948 113.182 9.68174 113.524 9.21808C113.866 8.751 114.326 8.37939 114.904 8.10324C115.478 7.82709 116.181 7.68901 117.011 7.68901C118.003 7.68901 118.804 7.87652 119.416 8.25154C120.025 8.62657 120.471 9.16523 120.755 9.86754C121.035 10.5699 121.175 11.4324 121.175 12.4552V20.4482ZM112.806 20.4482H110.729V3.50583H112.791V7.57139L112.729 11.1511L112.806 11.3199V20.4482ZM129.652 20.7295C127.744 20.7295 126.308 20.2641 125.344 19.3334C124.377 18.4061 123.893 17.0765 123.893 15.3445V13.12C123.893 11.3642 124.343 10.0124 125.242 9.06466C126.137 8.11347 127.448 7.63788 129.175 7.63788C130.337 7.63788 131.308 7.85266 132.088 8.28223C132.864 8.7118 133.448 9.32376 133.841 10.1181C134.234 10.9091 134.431 11.8552 134.431 12.9563V13.4166C134.431 13.6893 134.421 13.9621 134.4 14.2348C134.38 14.5076 134.352 14.7752 134.318 15.0377H132.405C132.423 14.6286 132.433 14.2416 132.436 13.8769C132.443 13.5087 132.446 13.1711 132.446 12.8643C132.446 12.1074 132.323 11.4665 132.077 10.9415C131.835 10.4164 131.472 10.0158 130.99 9.73969C130.508 9.46354 129.903 9.32547 129.175 9.32547C128.098 9.32547 127.291 9.63571 126.754 10.2562C126.214 10.8801 125.944 11.7716 125.944 12.9308V14.1172L125.96 14.3729V15.5644C125.96 16.0827 126.037 16.5514 126.19 16.9708C126.344 17.3867 126.585 17.7464 126.913 18.0498C127.242 18.3532 127.66 18.5834 128.17 18.7402C128.679 18.897 129.284 18.9754 129.985 18.9754C130.795 18.9754 131.551 18.8697 132.252 18.6584C132.952 18.4436 133.611 18.1538 134.226 17.789L134.036 19.5789C133.479 19.9266 132.833 20.2062 132.098 20.4176C131.363 20.6255 130.547 20.7295 129.652 20.7295ZM133.882 15.0377H124.985V13.478H133.882V15.0377ZM141.328 20.7193C139.824 20.7193 138.679 20.2539 137.892 19.3232C137.106 18.3924 136.713 17.0373 136.713 15.2576V13.1967C136.713 11.4068 137.11 10.0414 137.903 9.10045C138.699 8.15949 139.87 7.68901 141.415 7.68901C142.185 7.68901 142.851 7.81857 143.415 8.07767C143.979 8.33678 144.437 8.70157 144.79 9.17205C145.138 9.63912 145.372 10.1931 145.492 10.8341H146.174L145.559 12.7365C145.531 12.0035 145.367 11.3881 145.066 10.8903C144.762 10.3926 144.352 10.0158 143.836 9.76015C143.316 9.50446 142.723 9.37661 142.056 9.37661C140.997 9.37661 140.188 9.68344 139.631 10.2971C139.07 10.9108 138.79 11.8142 138.79 13.0075V15.3855C138.79 16.5617 139.07 17.4566 139.631 18.0703C140.188 18.6839 140.997 18.9908 142.056 18.9908C142.689 18.9908 143.249 18.8697 143.738 18.6277C144.224 18.3822 144.627 18.0447 144.949 17.6151C145.27 17.1856 145.49 16.698 145.61 16.1525L146.123 17.6356H145.507C145.388 18.1981 145.159 18.7129 144.82 19.18C144.482 19.6505 144.029 20.0238 143.461 20.2999C142.894 20.5795 142.183 20.7193 141.328 20.7193ZM147.584 20.4482H145.507L145.595 17.431L145.559 16.7662V11.55L145.569 11.1153L145.518 7.57139V3.50583H147.584V20.4482ZM150.815 7.97028H152.876V15.7332C152.876 16.3878 152.969 16.9605 153.153 17.4515C153.338 17.9424 153.639 18.3208 154.056 18.5868C154.476 18.8561 155.04 18.9908 155.748 18.9908C156.415 18.9908 156.987 18.8697 157.466 18.6277C157.945 18.3822 158.336 18.0464 158.64 17.6202C158.944 17.1941 159.151 16.7134 159.261 16.1781L159.635 17.6458H159.184C159.057 18.2083 158.823 18.7231 158.481 19.1902C158.139 19.6539 157.68 20.0238 157.102 20.2999C156.524 20.5795 155.813 20.7193 154.969 20.7193C153.984 20.7193 153.186 20.5335 152.574 20.1619C151.965 19.7902 151.519 19.2482 151.235 18.5356C150.955 17.8231 150.815 16.964 150.815 15.9582V7.97028ZM159.174 7.97028H161.25V20.4482H159.174L159.261 17.4566L159.174 17.3287V7.97028ZM166.758 20.4482H164.696V3.50583H166.758V20.4482ZM175.465 20.7295C173.557 20.7295 172.122 20.2641 171.158 19.3334C170.19 18.4061 169.706 17.0765 169.706 15.3445V13.12C169.706 11.3642 170.156 10.0124 171.055 9.06466C171.951 8.11347 173.262 7.63788 174.988 7.63788C176.151 7.63788 177.121 7.85266 177.901 8.28223C178.677 8.7118 179.262 9.32376 179.655 10.1181C180.048 10.9091 180.244 11.8552 180.244 12.9563V13.4166C180.244 13.6893 180.234 13.9621 180.214 14.2348C180.193 14.5076 180.166 14.7752 180.132 15.0377H178.219C178.236 14.6286 178.246 14.2416 178.25 13.8769C178.256 13.5087 178.26 13.1711 178.26 12.8643C178.26 12.1074 178.137 11.4665 177.891 10.9415C177.648 10.4164 177.286 10.0158 176.803 9.73969C176.321 9.46354 175.716 9.32547 174.988 9.32547C173.911 9.32547 173.105 9.63571 172.568 10.2562C172.028 10.8801 171.758 11.7716 171.758 12.9308V14.1172L171.773 14.3729V15.5644C171.773 16.0827 171.85 16.5514 172.004 16.9708C172.158 17.3867 172.399 17.7464 172.727 18.0498C173.055 18.3532 173.474 18.5834 173.983 18.7402C174.492 18.897 175.098 18.9754 175.798 18.9754C176.609 18.9754 177.364 18.8697 178.065 18.6584C178.766 18.4436 179.424 18.1538 180.039 17.789L179.85 19.5789C179.292 19.9266 178.646 20.2062 177.911 20.4176C177.176 20.6255 176.361 20.7295 175.465 20.7295ZM179.696 15.0377H170.799V13.478H179.696V15.0377ZM184.988 12.8132L184.511 11.2176L185.024 11.192C185.297 10.1352 185.767 9.3016 186.434 8.69134C187.1 8.08108 187.986 7.77595 189.09 7.77595C189.364 7.77595 189.61 7.79811 189.829 7.84243C190.044 7.88334 190.237 7.93448 190.408 7.99585L190.536 10.0005C190.324 9.93232 190.088 9.87777 189.829 9.83686C189.565 9.79254 189.276 9.77038 188.962 9.77038C188.022 9.77038 187.203 10.0312 186.506 10.5528C185.808 11.0744 185.302 11.8279 184.988 12.8132ZM185.09 20.4482H183.013V7.97028H185.039L184.936 11.6523L185.09 11.8057V20.4482Z" fill="black"/>
</g>
</g>
</g>
</g>
<g clip-path="url(#clip8_32_3)">
<g clip-path="url(#clip9_32_3)">
<path d="M17.7845 8.25314H3.30176V20.9767H17.7845V8.25314ZM15.3707 12.2078H5.71554V11.1761H15.3707V12.2078Z" fill="#B24CC2"/>
<path d="M17.2673 3.43881V0H14.8535V3.43881H6.23283V0H3.81905V3.43881H0.198364V24.0717H20.888V3.43881H17.2673ZM18.819 22.0084H2.26732V7.2215H18.819V22.0084Z" fill="#B24CC2"/>
</g>
</g>
</g>
</g>
</g>
</g>
<defs>
<clipPath id="clip0_32_3">
<rect width="191" height="24" fill="white"/>
</clipPath>
<clipPath id="clip1_32_3">
<rect width="191" height="24" fill="white" transform="translate(-0.115784 0.0358276)"/>
</clipPath>
<clipPath id="clip2_32_3">
<rect width="190.372" height="24.0717" fill="white" transform="translate(0.198364)"/>
</clipPath>
<clipPath id="clip3_32_3">
<rect width="190.372" height="24.0717" fill="white" transform="translate(0.198364)"/>
</clipPath>
<clipPath id="clip4_32_3">
<rect width="159.86" height="17.418" fill="white" transform="translate(30.7096 3.32684)"/>
</clipPath>
<clipPath id="clip5_32_3">
<rect width="159.86" height="17.418" fill="white" transform="translate(30.7096 3.32684)"/>
</clipPath>
<clipPath id="clip6_32_3">
<rect width="159.86" height="17.418" fill="white" transform="translate(30.7096 3.32684)"/>
</clipPath>
<clipPath id="clip7_32_3">
<rect width="159.86" height="17.418" fill="white" transform="translate(30.7096 3.32684)"/>
</clipPath>
<clipPath id="clip8_32_3">
<rect width="20.6896" height="24.0717" fill="white" transform="translate(0.198364)"/>
</clipPath>
<clipPath id="clip9_32_3">
<rect width="20.6896" height="24.0717" fill="white" transform="translate(0.198364)"/>
</clipPath>
</defs>
</svg>
