<svg width="611" height="434" viewBox="0 0 611 434" fill="none" xmlns="http://www.w3.org/2000/svg">
<g clip-path="url(#clip0_24_486)">
<path d="M611 -88.4854H0V522.487H611V-88.4854Z" fill="white"/>
<path d="M494.878 324.093L121.804 277.826C120.802 277.247 120.302 276.489 120.303 275.733C120.286 281.71 120.27 287.686 120.253 293.662C120.251 294.419 120.749 295.176 121.753 295.755L345.25 424.786C347.232 425.93 350.437 425.93 352.404 424.786L494.828 342.023C495.807 341.455 496.296 340.711 496.298 339.964C496.315 333.987 496.331 328.012 496.348 322.034C496.347 322.78 495.856 323.525 494.878 324.093Z" fill="#959595" stroke="black" stroke-miterlimit="10" stroke-linejoin="round"/>
<path d="M494.856 319.949C496.837 321.092 496.847 322.948 494.878 324.093L352.455 406.857C350.487 408 347.284 408.002 345.301 406.857L121.804 277.826C119.815 276.678 119.804 274.821 121.772 273.677L264.196 190.914C266.165 189.77 269.369 189.77 271.36 190.919L494.856 319.949Z" fill="white" stroke="black" stroke-miterlimit="10" stroke-linejoin="round"/>
<path d="M221.981 300.914L201.95 312.555L227.387 327.241L247.42 315.6L221.981 300.914Z" fill="#B2B2B2"/>
<path d="M285.08 360.549L310.518 375.234L330.55 363.594L305.114 348.907L285.08 360.549Z" fill="#B2B2B2"/>
<path d="M249.67 316.901L229.639 328.541L255.128 343.256L275.16 331.616L249.67 316.901Z" fill="#B2B2B2"/>
<path d="M277.412 332.916L257.38 344.557L282.828 359.249L302.86 347.608L277.412 332.916Z" fill="#B2B2B2"/>
<path d="M342.188 292.665L316.7 277.949L296.667 289.589L322.157 304.305L342.188 292.665Z" fill="#B2B2B2"/>
<path d="M369.888 308.657L344.44 293.964L324.409 305.607L349.857 320.297L369.888 308.657Z" fill="#B2B2B2"/>
<path d="M194.281 284.923L174.25 296.563L199.687 311.25L219.719 299.608L194.281 284.923Z" fill="#B2B2B2"/>
<path d="M241.278 257.612L266.716 272.298L286.747 260.658L261.31 245.972L241.278 257.612Z" fill="#B2B2B2"/>
<path d="M268.978 273.604L294.416 288.291L314.447 276.649L289.01 261.964L268.978 273.604Z" fill="#B2B2B2"/>
<path d="M289.048 259.321L309.08 247.679L283.643 232.994L263.611 244.634L289.048 259.321Z" fill="#B2B2B2"/>
<path d="M344.489 291.327L364.521 279.687L339.032 264.972L319.001 276.612L344.489 291.327Z" fill="#B2B2B2"/>
<path d="M316.748 275.312L336.781 263.671L311.342 248.987L291.311 260.626L316.748 275.312Z" fill="#B2B2B2"/>
<path d="M281.39 231.693L255.953 217.009L235.921 228.649L261.359 243.334L281.39 231.693Z" fill="#B2B2B2"/>
<path d="M372.189 307.32L392.222 295.68L366.773 280.987L346.741 292.628L372.189 307.32Z" fill="#B2B2B2"/>
<path d="M394.474 296.98L374.442 308.62L399.879 323.305L419.911 311.665L394.474 296.98Z" fill="#B2B2B2"/>
<path d="M352.109 321.598L377.547 336.284L397.579 324.643L372.142 309.957L352.109 321.598Z" fill="#B2B2B2"/>
<path d="M259.058 244.672L233.621 229.986L213.588 241.626L239.026 256.312L259.058 244.672Z" fill="#B2B2B2"/>
<path d="M196.582 283.585L222.02 298.271L242.051 286.63L216.614 271.945L196.582 283.585Z" fill="#B2B2B2"/>
<path d="M236.726 257.649L211.287 242.963L191.225 254.621L216.663 269.308L236.726 257.649Z" fill="#B2B2B2"/>
<path d="M166.592 268.936L146.561 280.576L171.998 295.263L192.03 283.623L166.592 268.936Z" fill="#B2B2B2"/>
<path d="M214.362 270.644L188.924 255.959L168.893 267.599L194.33 282.286L214.362 270.644Z" fill="#B2B2B2"/>
<path d="M218.915 270.608L244.352 285.294L264.415 273.636L238.978 258.949L218.915 270.608Z" fill="#B2B2B2"/>
<path d="M269.752 302.623L244.314 287.937L224.282 299.578L249.721 314.263L269.752 302.623Z" fill="#B2B2B2"/>
<path d="M297.492 318.639L272.004 303.923L251.971 315.563L277.461 330.279L297.492 318.639Z" fill="#B2B2B2"/>
<path d="M325.192 334.63L299.744 319.938L279.712 331.579L305.161 346.27L325.192 334.63Z" fill="#B2B2B2"/>
<path d="M307.412 347.571L332.851 362.257L352.882 350.617L327.446 335.93L307.412 347.571Z" fill="#B2B2B2"/>
<path d="M329.747 334.594L355.183 349.279L375.246 337.62L349.81 322.935L329.747 334.594Z" fill="#B2B2B2"/>
<path d="M246.615 286.599L272.053 301.286L292.115 289.626L266.677 274.941L246.615 286.599Z" fill="#B2B2B2"/>
<path d="M347.556 321.635L322.108 306.942L302.045 318.601L327.494 333.293L347.556 321.635Z" fill="#B2B2B2"/>
<path d="M319.856 305.642L294.368 290.927L274.305 302.586L299.793 317.301L319.856 305.642Z" fill="#B2B2B2"/>
<path d="M312.771 376.535L338.218 391.226L358.25 379.585L332.803 364.894L312.771 376.535Z" fill="#B24CC2"/>
<path d="M422.164 312.965L402.132 324.605L427.579 339.298L447.611 327.658L422.164 312.965Z" fill="#B24CC2"/>
<path d="M357.436 350.579L382.883 365.272L402.946 353.613L377.499 338.92L357.436 350.579Z" fill="#B24CC2"/>
<path d="M379.8 337.584L405.247 352.275L425.279 340.635L399.831 325.942L379.8 337.584Z" fill="#B24CC2"/>
<path d="M335.104 363.557L360.551 378.249L380.582 366.608L355.135 351.916L335.104 363.557Z" fill="#B24CC2"/>
<path d="M274.316 231.115C274.586 230.958 274.721 230.785 274.714 230.6C274.717 230.411 274.577 230.234 274.293 230.07C274.009 229.905 273.702 229.824 273.375 229.827C273.056 229.824 272.758 229.904 272.488 230.06L271.451 230.661C271.172 230.825 271.035 230.997 271.041 231.182C271.037 231.371 271.178 231.55 271.462 231.713C271.746 231.878 272.051 231.958 272.381 231.955C272.699 231.959 272.998 231.878 273.278 231.717L274.316 231.115ZM272.329 231.529C272.185 231.53 272.051 231.502 271.941 231.437C271.829 231.373 271.779 231.296 271.781 231.212C271.772 231.135 271.846 231.057 271.959 230.991L273.036 230.364C273.16 230.291 273.284 230.256 273.427 230.254C273.57 230.253 273.705 230.281 273.816 230.346C273.927 230.411 273.976 230.487 273.975 230.571C273.974 230.653 273.911 230.726 273.788 230.798L272.709 231.425C272.596 231.491 272.462 231.534 272.329 231.529Z" fill="black"/>
<path d="M276.424 231.359L276.402 231.335L275.937 231.066L275.875 231.043L275.282 230.918L275.202 230.929L274.869 231.133L274.858 231.176L274.878 231.187L275.357 231.343L275.378 231.355L275.357 231.368L273.211 232.614L273.201 232.645L273.221 232.668L273.667 232.926L273.708 232.937L273.76 232.93L276.411 231.388L276.424 231.359Z" fill="black"/>
<path d="M301.59 246.859C301.86 246.703 301.995 246.529 301.988 246.346C301.992 246.156 301.852 245.978 301.568 245.815C301.284 245.65 300.977 245.57 300.649 245.573C300.331 245.569 300.033 245.65 299.763 245.805L298.726 246.406C298.447 246.57 298.309 246.742 298.316 246.927C298.312 247.117 298.453 247.294 298.737 247.458C299.021 247.623 299.326 247.704 299.655 247.7C299.974 247.704 300.273 247.626 300.552 247.462L301.59 246.859ZM299.604 247.274C299.46 247.275 299.326 247.247 299.216 247.182C299.104 247.117 299.054 247.041 299.055 246.957C299.058 246.886 299.12 246.803 299.234 246.736L300.311 246.109C300.436 246.037 300.57 246.006 300.702 245.999C300.845 245.998 300.98 246.026 301.09 246.091C301.202 246.156 301.251 246.231 301.25 246.316C301.249 246.399 301.185 246.471 301.062 246.543L299.984 247.17C299.871 247.237 299.737 247.28 299.604 247.274Z" fill="black"/>
<path d="M304.071 247.393C304.012 247.275 303.891 247.158 303.718 247.057C303.546 246.958 303.374 246.894 303.179 246.855C302.996 246.808 302.801 246.792 302.616 246.818C302.432 246.831 302.267 246.88 302.111 246.958L301.924 247.066L301.904 247.092L301.924 247.115L302.381 247.379L302.422 247.391L302.473 247.385L302.577 247.324L302.896 247.243C303.019 247.242 303.142 247.276 303.243 247.335C303.344 247.395 303.394 247.459 303.393 247.53L303.266 247.721C303.14 247.794 302.824 247.837 302.33 247.853L301.868 247.875C301.786 247.875 301.612 247.883 301.333 247.891C301.067 247.905 300.8 247.908 300.555 247.909L300.462 247.929L300.099 248.14L300.089 248.169L300.109 248.193L301.833 249.188L301.874 249.201L301.926 249.193L302.308 248.971L302.319 248.942L302.298 248.917L301.263 248.32L301.254 248.301L301.274 248.289L301.387 248.294C301.757 248.292 302.043 248.289 302.238 248.282L302.792 248.254C303.038 248.239 303.243 248.215 303.408 248.177C303.573 248.14 303.718 248.091 303.832 248.025C303.966 247.947 304.062 247.846 304.104 247.738C304.159 247.623 304.151 247.512 304.071 247.393Z" fill="black"/>
<path d="M329.32 262.869C329.589 262.713 329.726 262.539 329.719 262.356C329.722 262.167 329.583 261.988 329.298 261.825C329.014 261.66 328.707 261.58 328.379 261.583C328.061 261.579 327.762 261.66 327.494 261.815L326.456 262.417C326.176 262.58 326.039 262.752 326.047 262.938C326.043 263.127 326.182 263.304 326.468 263.469C326.752 263.633 327.057 263.714 327.386 263.711C327.704 263.714 328.003 263.634 328.282 263.472L329.32 262.869ZM327.333 263.284C327.191 263.285 327.057 263.255 326.946 263.192C326.835 263.127 326.785 263.051 326.786 262.967C326.776 262.89 326.851 262.813 326.966 262.746L328.043 262.119C328.168 262.047 328.29 262.01 328.434 262.009C328.577 262.008 328.711 262.036 328.822 262.101C328.933 262.165 328.983 262.241 328.982 262.325C328.98 262.409 328.917 262.481 328.794 262.552L327.715 263.178C327.6 263.247 327.467 263.29 327.333 263.284Z" fill="black"/>
<path d="M330.577 262.61L330.536 262.598L330.495 262.611L330.111 262.835L330.09 262.857L330.111 262.882L331.013 263.403L331.023 263.422L330.992 263.429L329.846 263.39L329.784 263.403L329.762 263.428L329.675 263.749L329.685 263.778L329.725 263.791L329.908 263.813L330.021 263.853C330.153 263.93 330.192 264.024 330.128 264.133C330.098 264.198 330.002 264.264 329.879 264.336C329.775 264.397 329.672 264.446 329.558 264.463C329.374 264.512 329.209 264.488 329.067 264.406L328.947 264.266L328.99 264.111L329.137 263.968V263.92L328.681 263.656H328.599C328.475 263.73 328.392 263.8 328.328 263.885C328.212 264.023 328.18 264.16 328.239 264.303C328.278 264.444 328.398 264.574 328.591 264.686C328.794 264.804 329.019 264.872 329.252 264.9C329.488 264.928 329.725 264.909 329.951 264.848C330.126 264.805 330.271 264.744 330.415 264.659C330.572 264.569 330.687 264.481 330.76 264.378C330.886 264.188 330.869 264.022 330.685 263.869L330.676 263.851H330.698L331.672 263.86L331.752 263.848L332.187 263.595L332.209 263.571L332.179 263.541L330.577 262.61Z" fill="black"/>
<path d="M357.288 278.273C357.281 278.076 357.14 277.899 356.866 277.74C356.582 277.577 356.277 277.497 355.949 277.5C355.63 277.496 355.331 277.575 355.061 277.731L354.024 278.333C353.745 278.497 353.609 278.669 353.615 278.853C353.611 279.044 353.752 279.221 354.037 279.385C354.312 279.544 354.617 279.623 354.956 279.627C355.273 279.631 355.571 279.55 355.851 279.389L356.888 278.786C357.158 278.629 357.296 278.456 357.288 278.273ZM356.361 278.47L355.283 279.097C355.168 279.164 355.025 279.199 354.902 279.201C354.758 279.202 354.624 279.174 354.514 279.109C354.402 279.044 354.352 278.968 354.354 278.884C354.345 278.807 354.418 278.729 354.532 278.663L355.611 278.036C355.735 277.963 355.859 277.927 356.002 277.926C356.145 277.925 356.279 277.953 356.389 278.018C356.501 278.082 356.55 278.158 356.549 278.243C356.539 278.321 356.485 278.398 356.361 278.47Z" fill="black"/>
<path d="M358.804 278.907L358.722 278.895L356.446 279.419L356.364 279.444L356.053 279.625L356.042 279.654L356.061 279.678L357.238 280.358L357.239 280.381L356.597 280.755L356.576 280.778L356.605 280.807L357.051 281.065L357.094 281.077L357.134 281.065L357.777 280.691H357.819L357.99 280.79L358.03 280.802L358.072 280.79L358.466 280.562L358.497 280.531L358.476 280.508L358.305 280.408V280.383L358.791 280.101L358.813 280.077L358.793 280.053L358.347 279.796L358.295 279.779L358.255 279.791L357.767 280.073L357.726 280.074L357.149 279.741L357.148 279.728L357.159 279.722L359.269 279.237L359.311 279.211L359.281 279.183L358.804 278.907Z" fill="black"/>
<path d="M384.711 294.849C384.98 294.692 385.116 294.518 385.099 294.328C385.102 294.139 384.962 293.96 384.677 293.797C384.403 293.638 384.097 293.558 383.759 293.555C383.44 293.551 383.142 293.632 382.872 293.787L381.836 294.389C381.556 294.552 381.419 294.724 381.425 294.91C381.433 295.105 381.573 295.283 381.847 295.441C382.13 295.605 382.437 295.686 382.766 295.683C383.093 295.692 383.393 295.612 383.673 295.45L384.711 294.849ZM382.713 295.256C382.58 295.263 382.447 295.234 382.326 295.164C382.215 295.1 382.165 295.023 382.177 294.945C382.167 294.868 382.24 294.791 382.354 294.724L383.432 294.097C383.556 294.025 383.68 293.988 383.823 293.987C383.956 293.98 384.09 294.009 384.2 294.073C384.324 294.144 384.373 294.219 384.361 294.298C384.361 294.381 384.296 294.453 384.172 294.525L383.095 295.152C382.981 295.219 382.848 295.262 382.713 295.256Z" fill="black"/>
<path d="M387.558 295.521L387.538 295.496L385.955 294.582L385.914 294.57L385.862 294.577L384.276 295.499L384.266 295.528L384.287 295.553L384.754 295.821L384.846 295.828L385.102 295.819L385.347 295.912L385.487 296.054L385.433 296.203L385.266 296.346L385.029 296.436L384.742 296.463L384.497 296.393L384.367 296.258L384.4 296.098L384.423 296.073L384.452 296.044L384.444 295.99L383.976 295.72L383.894 295.721L383.884 295.727L383.727 295.889C383.622 296.021 383.599 296.151 383.648 296.287C383.696 296.435 383.828 296.559 384.021 296.671C384.224 296.788 384.448 296.858 384.682 296.886C384.937 296.913 385.165 296.9 385.391 296.838C385.546 296.795 385.679 296.741 385.815 296.662C385.941 296.589 386.043 296.506 386.126 296.41C386.242 296.284 386.264 296.154 386.227 296.024C386.189 295.895 386.088 295.776 385.904 295.67C385.752 295.583 385.578 295.531 385.396 295.509L385.374 295.484L385.965 295.153H386.005L387.07 295.768L387.11 295.78L387.163 295.774L387.545 295.55L387.558 295.521Z" fill="black"/>
<path d="M412.401 310.834C412.669 310.678 412.805 310.505 412.799 310.32C412.803 310.13 412.662 309.953 412.377 309.788C412.094 309.624 411.787 309.544 411.46 309.546C411.141 309.544 410.842 309.623 410.574 309.78L409.537 310.381C409.258 310.543 409.121 310.717 409.127 310.901C409.124 311.091 409.265 311.269 409.55 311.433C409.833 311.598 410.139 311.677 410.467 311.675C410.785 311.679 411.084 311.598 411.363 311.437L412.401 310.834ZM410.414 311.248C410.271 311.25 410.136 311.22 410.026 311.157C409.915 311.092 409.865 311.015 409.866 310.932C409.856 310.854 409.93 310.777 410.045 310.711L411.124 310.084C411.248 310.011 411.37 309.975 411.515 309.974C411.658 309.973 411.791 310.002 411.902 310.066C412.013 310.129 412.063 310.206 412.061 310.29C412.06 310.372 411.997 310.446 411.873 310.516L410.796 311.143C410.681 311.212 410.547 311.253 410.414 311.248Z" fill="black"/>
<path d="M414.852 311.325C414.782 311.212 414.672 311.113 414.499 311.013C414.336 310.92 414.154 310.849 413.96 310.81C413.766 310.769 413.581 310.758 413.407 310.778C413.222 310.805 413.057 310.852 412.922 310.931L411.741 311.619C411.596 311.702 411.491 311.786 411.429 311.883C411.324 312.013 411.291 312.151 411.348 312.293C411.397 312.429 411.519 312.547 411.721 312.665C411.914 312.776 412.118 312.844 412.353 312.874C412.58 312.907 412.804 312.894 413.031 312.844C413.207 312.801 413.362 312.734 413.506 312.651C413.693 312.542 413.808 312.441 413.872 312.333C413.937 312.214 413.949 312.101 413.899 311.989C413.85 311.876 413.739 311.776 413.587 311.688C413.414 311.588 413.23 311.531 413.036 311.526L413.015 311.515V311.503L413.378 311.291L413.698 311.212L414.026 311.292L414.157 311.476L414.029 311.643L413.988 311.667L413.966 311.692L413.996 311.721L414.442 311.979L414.483 311.991L414.524 311.978L414.638 311.912C414.772 311.834 414.868 311.743 414.901 311.642C414.931 311.539 414.912 311.432 414.852 311.325ZM413.037 311.898C413.159 311.968 413.2 312.051 413.157 312.146C413.134 312.219 413.073 312.277 412.969 312.338L412.658 312.447C412.484 312.478 412.331 312.462 412.188 312.38C412.056 312.303 412.017 312.209 412.08 312.114L412.267 311.945C412.371 311.884 412.485 311.842 412.578 311.823C412.741 311.799 412.895 311.817 413.037 311.898Z" fill="black"/>
<path d="M251.67 243.84C251.94 243.684 252.075 243.509 252.058 243.319C252.062 243.13 251.91 242.958 251.626 242.794C251.352 242.636 251.056 242.55 250.729 242.552C250.4 242.542 250.102 242.623 249.833 242.779L248.796 243.382C248.514 243.544 248.379 243.718 248.386 243.913C248.393 244.098 248.534 244.275 248.808 244.434C249.092 244.598 249.398 244.678 249.716 244.682C250.054 244.684 250.352 244.605 250.632 244.444L251.67 243.84ZM249.663 244.254C249.53 244.26 249.407 244.226 249.286 244.156C249.174 244.092 249.114 244.021 249.125 243.943C249.128 243.861 249.191 243.789 249.315 243.717L250.393 243.09C250.517 243.018 250.641 242.981 250.784 242.98C250.917 242.972 251.039 243.007 251.152 243.071C251.274 243.142 251.332 243.212 251.321 243.29C251.321 243.373 251.257 243.445 251.133 243.517L250.055 244.144C249.93 244.215 249.807 244.253 249.663 244.254Z" fill="black"/>
<path d="M253.789 244.018C253.637 243.93 253.473 243.872 253.301 243.833C253.118 243.786 252.944 243.781 252.758 243.795C252.532 243.809 252.326 243.871 252.14 243.978C252.006 244.057 251.921 244.141 251.879 244.236L251.835 244.438L251.813 244.45L251.392 244.472C251.218 244.514 251.051 244.576 250.906 244.66C250.762 244.743 250.657 244.84 250.593 244.947C250.53 245.066 250.517 245.19 250.597 245.321C250.666 245.446 250.787 245.563 250.96 245.662C251.153 245.774 251.356 245.843 251.561 245.877C251.786 245.911 251.991 245.909 252.196 245.872C252.371 245.841 252.537 245.78 252.692 245.691C252.837 245.607 252.941 245.512 253.005 245.404L253.04 245.16L253.07 245.141L253.389 245.133C253.574 245.108 253.719 245.058 253.863 244.975C254.04 244.873 254.144 244.753 254.178 244.616C254.21 244.514 254.182 244.414 254.122 244.307C254.053 244.207 253.95 244.112 253.789 244.018ZM252.383 245.177L252.196 245.344C252.081 245.411 251.968 245.453 251.846 245.466C251.692 245.486 251.56 245.457 251.436 245.387C251.315 245.316 251.265 245.228 251.308 245.145L251.495 244.954C251.599 244.893 251.701 244.858 251.815 244.838C251.969 244.808 252.123 244.836 252.254 244.912C252.397 244.991 252.437 245.075 252.383 245.177ZM253.44 244.562L253.305 244.677L253.048 244.767C252.893 244.787 252.75 244.764 252.628 244.693C252.506 244.622 252.466 244.54 252.499 244.451L252.656 244.302L252.862 244.227L253.098 244.22L253.302 244.29L253.443 244.42L253.44 244.562Z" fill="black"/>
<path d="M279.38 259.838C279.65 259.681 279.787 259.508 279.779 259.323C279.772 259.128 279.622 258.957 279.338 258.792C279.063 258.634 278.768 258.547 278.44 258.55C278.113 258.541 277.813 258.621 277.544 258.778L276.508 259.379C276.227 259.543 276.091 259.715 276.099 259.912C276.105 260.095 276.245 260.273 276.52 260.431C276.804 260.595 277.109 260.676 277.438 260.686C277.767 260.683 278.065 260.604 278.345 260.441L279.38 259.838ZM277.383 260.257C277.24 260.258 277.117 260.224 276.996 260.153C276.883 260.088 276.823 260.017 276.836 259.94C276.837 259.857 276.9 259.785 277.024 259.713L278.102 259.086C278.226 259.014 278.35 258.977 278.493 258.976C278.626 258.969 278.748 259.004 278.86 259.069C278.983 259.139 279.042 259.21 279.041 259.293C279.029 259.371 278.976 259.448 278.852 259.521L277.774 260.148C277.651 260.219 277.517 260.251 277.383 260.257Z" fill="black"/>
<path d="M281.428 260C281.236 259.888 281.032 259.818 280.796 259.791C280.561 259.763 280.335 259.766 280.118 259.819C279.942 259.862 279.789 259.929 279.633 260.02C279.457 260.121 279.343 260.224 279.278 260.331C279.215 260.451 279.203 260.562 279.251 260.676C279.3 260.788 279.402 260.895 279.553 260.981C279.727 261.082 279.91 261.127 280.115 261.138L280.125 261.144L280.114 261.162L279.751 261.374L279.431 261.453L279.126 261.372L278.985 261.195L279.112 261.016L279.154 260.991L279.174 260.967L279.154 260.942L278.708 260.684L278.658 260.667L278.616 260.68L278.502 260.747C278.368 260.824 278.284 260.92 278.251 261.022C278.209 261.129 278.226 261.236 278.297 261.337C278.367 261.449 278.477 261.55 278.649 261.649C278.811 261.743 278.995 261.812 279.189 261.853C279.372 261.898 279.557 261.909 279.741 261.883C279.917 261.862 280.073 261.809 280.217 261.724L281.398 261.038C281.543 260.953 281.658 260.863 281.721 260.78C281.826 260.648 281.84 260.511 281.791 260.375C281.742 260.241 281.621 260.11 281.428 260ZM281.07 260.549L280.883 260.717C280.779 260.777 280.665 260.82 280.561 260.832C280.396 260.869 280.244 260.842 280.112 260.765C279.989 260.694 279.95 260.611 279.985 260.51L280.181 260.325L280.492 260.215C280.666 260.185 280.819 260.201 280.952 260.278C281.093 260.358 281.133 260.452 281.07 260.549Z" fill="black"/>
<path d="M307.371 275.025L307.353 275.002L306.886 274.732L306.814 274.704L306.222 274.589L306.129 274.596L305.807 274.794L305.796 274.848H305.816L306.305 275.01L306.315 275.015L306.305 275.034L304.159 276.281L304.139 276.303L304.158 276.339L304.605 276.597L304.657 276.603L304.698 276.592L307.351 275.05L307.371 275.025Z" fill="black"/>
<path d="M308.732 275.763C308.447 275.598 308.152 275.513 307.823 275.515C307.505 275.511 307.207 275.592 306.937 275.747L305.901 276.35C305.621 276.512 305.484 276.685 305.48 276.875C305.488 277.06 305.628 277.237 305.913 277.401C306.197 277.566 306.502 277.645 306.821 277.649C307.148 277.646 307.456 277.572 307.737 277.41L308.774 276.808C309.044 276.652 309.17 276.473 309.162 276.289C309.167 276.097 309.017 275.927 308.732 275.763ZM308.237 276.485L307.159 277.112C307.035 277.186 306.911 277.221 306.768 277.222C306.624 277.223 306.501 277.189 306.39 277.124C306.278 277.06 306.217 276.99 306.219 276.906C306.231 276.828 306.283 276.751 306.408 276.678L307.486 276.052C307.609 275.978 307.744 275.948 307.877 275.942C308.02 275.94 308.142 275.975 308.254 276.039C308.367 276.104 308.427 276.174 308.425 276.258C308.425 276.341 308.362 276.413 308.237 276.485Z" fill="black"/>
<path d="M335.467 291.246L335.448 291.222L334.981 290.953L334.91 290.924L334.306 290.803L334.224 290.816L333.903 291.014L333.882 291.062L333.913 291.068L334.393 291.224L334.411 291.237L334.401 291.255L332.257 292.5L332.235 292.526L332.245 292.554L332.702 292.818L332.753 292.824L332.793 292.812L335.448 291.27L335.467 291.246Z" fill="black"/>
<path d="M336.362 291.75L336.299 291.725L335.697 291.607L335.615 291.618L335.294 291.817L335.272 291.865L335.302 291.871L335.781 292.026L335.802 292.038L335.781 292.05L333.635 293.298L333.626 293.327L333.634 293.357L334.081 293.615L334.133 293.619L334.184 293.613L336.837 292.071L336.847 292.042L336.828 292.019L336.362 291.75Z" fill="black"/>
<path d="M362.771 307.009L362.753 306.986L362.286 306.716L362.224 306.693L361.622 306.573L361.53 306.581L361.207 306.778L361.196 306.832H361.217L361.706 306.994L361.716 307L361.706 307.018L359.56 308.266L359.539 308.288L359.559 308.323L360.005 308.581L360.057 308.587L360.109 308.581L362.76 307.039L362.771 307.009Z" fill="black"/>
<path d="M364.499 308.404C364.532 308.29 364.534 308.171 364.465 308.059C364.405 307.941 364.274 307.829 364.092 307.724C363.93 307.631 363.747 307.561 363.562 307.514C363.368 307.475 363.183 307.464 362.999 307.477C362.803 307.498 362.638 307.546 362.494 307.618L362.307 307.727L362.297 307.756L362.307 307.785L362.753 308.043L362.814 308.054L362.856 308.042L362.949 307.988L363.279 307.903C363.412 307.908 363.513 307.942 363.615 308C363.716 308.059 363.777 308.118 363.786 308.195L363.649 308.379C363.524 308.453 363.216 308.503 362.714 308.523L362.241 308.539C362.18 308.541 362.005 308.548 361.729 308.556C361.45 308.564 361.174 308.572 360.929 308.575L360.855 308.593L360.492 308.804L360.472 308.829L360.481 308.859L362.217 309.86L362.268 309.866L362.308 309.854L362.682 309.637L362.713 309.607L362.692 309.583L361.647 308.979L361.648 308.967L361.659 308.961H361.783C362.152 308.957 362.428 308.949 362.625 308.941L363.178 308.914C363.424 308.9 363.629 308.875 363.794 308.837C363.971 308.806 364.105 308.752 364.209 308.691C364.353 308.607 364.457 308.51 364.499 308.404Z" fill="black"/>
<path d="M390.502 323.019L390.483 322.995L390.016 322.725L389.944 322.697L389.351 322.582L389.26 322.589L388.938 322.787L388.927 322.841H388.948L389.438 323.003L389.447 323.01L389.437 323.028L387.291 324.274L387.27 324.299L387.29 324.333L387.736 324.591L387.788 324.597L387.829 324.585L390.482 323.043L390.502 323.019Z" fill="black"/>
<path d="M392.592 324.225L392.572 324.201L390.968 323.276L390.928 323.264L390.876 323.27L390.493 323.493L390.482 323.523L390.491 323.552L391.394 324.074L391.404 324.08L391.382 324.092L390.225 324.06L390.174 324.067L390.153 324.091L390.054 324.406L390.065 324.448L390.105 324.46L390.299 324.476L390.401 324.51C390.543 324.592 390.582 324.689 390.508 324.79C390.478 324.856 390.394 324.927 390.27 325C390.166 325.06 390.053 325.103 389.949 325.126C389.753 325.17 389.6 325.153 389.459 325.071L389.318 324.929L389.372 324.769L389.517 324.637L389.519 324.577L389.073 324.32L388.97 324.321C388.866 324.393 388.772 324.471 388.71 324.543C388.604 324.686 388.572 324.824 388.619 324.96C388.668 325.108 388.79 325.237 388.982 325.348C389.175 325.46 389.399 325.528 389.644 325.563C389.879 325.59 390.106 325.577 390.342 325.51C390.507 325.473 390.662 325.406 390.808 325.323C390.963 325.232 391.068 325.137 391.141 325.036C391.267 324.856 391.24 324.684 391.068 324.525L391.058 324.519L391.08 324.506L392.053 324.528L392.135 324.504L392.57 324.251L392.592 324.225Z" fill="black"/>
<path d="M229.782 256.029L229.752 256.001L229.296 255.737L229.224 255.707L228.622 255.588L228.538 255.6L228.207 255.805L228.196 255.846L228.227 255.852L228.706 256.009L228.716 256.026V256.037L226.56 257.291L226.539 257.314L226.559 257.339L227.006 257.597L227.057 257.614L227.099 257.601L229.752 256.061L229.782 256.029Z" fill="black"/>
<path d="M230.169 257.368C230.027 257.287 229.842 257.229 229.659 257.207L229.649 257.188L230.23 256.851H230.27L231.347 257.472L231.387 257.484L231.438 257.465L231.811 257.248L231.843 257.219L231.822 257.195L230.228 256.274L230.188 256.262L230.136 256.282L228.562 257.197L228.54 257.22L228.549 257.25L229.026 257.526L229.119 257.531L229.375 257.522L229.63 257.609L229.76 257.744L229.705 257.905L229.54 258.036L229.292 258.133L229.015 258.165L228.761 258.09L228.639 257.948L228.684 257.795L228.705 257.77L228.725 257.746L228.717 257.692L228.25 257.422L228.157 257.417L228.001 257.578C227.896 257.71 227.863 257.847 227.923 257.989C227.981 258.131 228.091 258.255 228.295 258.373C228.487 258.484 228.712 258.553 228.958 258.588C229.213 258.614 229.449 258.595 229.676 258.534C229.82 258.497 229.965 258.437 230.1 258.358C230.214 258.292 230.319 258.208 230.412 258.106C230.507 257.98 230.55 257.85 230.512 257.72C230.472 257.592 230.351 257.474 230.169 257.368Z" fill="black"/>
<path d="M257.472 272.016L257.452 271.992L256.985 271.722L256.924 271.7L256.322 271.579L256.23 271.587L255.897 271.791V271.838H255.917L256.406 272.001V272.013V272.024L254.251 273.278L254.23 273.301L254.259 273.33L254.706 273.588L254.747 273.599L254.798 273.594L257.452 272.052L257.472 272.016Z" fill="black"/>
<path d="M258.754 273.693L258.805 273.674L258.909 273.614C259.053 273.529 259.139 273.445 259.181 273.338C259.213 273.236 259.196 273.13 259.115 273.024C259.055 272.917 258.934 272.811 258.772 272.717C258.6 272.618 258.416 272.547 258.233 272.514C258.05 272.468 257.865 272.458 257.67 272.477C257.495 272.497 257.34 272.552 257.194 272.635L256.013 273.321C255.868 273.405 255.765 273.49 255.69 273.578C255.595 273.716 255.573 273.847 255.62 273.983C255.67 274.12 255.79 274.249 255.983 274.36C256.176 274.473 256.401 274.541 256.625 274.577C256.859 274.604 257.076 274.596 257.292 274.541C257.467 274.499 257.632 274.437 257.787 274.347C257.964 274.246 258.088 274.137 258.13 274.029C258.206 273.917 258.207 273.798 258.158 273.686C258.11 273.574 258.019 273.472 257.868 273.385C257.686 273.279 257.501 273.234 257.296 273.223L257.285 273.217L257.286 273.206L257.659 272.988L257.979 272.909L258.295 272.994L258.425 273.167L258.298 273.345L258.267 273.363L258.237 273.393L258.256 273.417L258.714 273.681L258.754 273.693ZM257.299 273.597C257.431 273.674 257.472 273.756 257.429 273.851C257.397 273.917 257.335 273.977 257.23 274.037L256.921 274.145C256.756 274.182 256.592 274.16 256.461 274.083C256.318 274.002 256.289 273.913 256.341 273.811L256.53 273.643C256.644 273.576 256.747 273.541 256.859 273.521C257.015 273.492 257.167 273.521 257.299 273.597Z" fill="black"/>
<path d="M285.243 288.049L285.223 288.025L284.755 287.755L284.686 287.727L284.092 287.612L284 287.618L283.669 287.824L283.668 287.871H283.689L284.177 288.034L284.179 288.046L284.177 288.057L282.022 289.31L282.001 289.333L282.03 289.363L282.476 289.621L282.517 289.632L282.559 289.621L285.211 288.079L285.243 288.049Z" fill="black"/>
<path d="M286.889 289.503L287.282 289.274L287.314 289.244L287.284 289.214L285.609 288.249L285.567 288.237L285.517 288.255L284.885 288.609L284.863 288.634L284.884 288.669L285.228 288.869L285.28 288.873L285.331 288.869L285.508 288.765L285.548 288.763L286.258 289.174V289.198L283.229 289.995L283.208 290.042L283.695 290.324L283.776 290.336L286.816 289.532L286.889 289.503Z" fill="black"/>
<path d="M312.853 303.989L312.821 303.958L312.365 303.694L312.294 303.666L311.692 303.545L311.61 303.559L311.276 303.763L311.267 303.804L311.297 303.81L311.776 303.967L311.786 303.984V303.996L309.63 305.249L309.608 305.273L309.63 305.296L310.076 305.554L310.126 305.571L310.168 305.56L312.821 304.018L312.853 303.989Z" fill="black"/>
<path d="M314.561 305.274C314.584 305.18 314.576 305.079 314.506 304.979C314.445 304.872 314.334 304.772 314.182 304.684C314.031 304.596 313.856 304.533 313.684 304.492C313.5 304.458 313.326 304.442 313.151 304.462C312.915 304.481 312.709 304.542 312.522 304.65C312.396 304.723 312.292 304.806 312.25 304.902L312.226 305.104L312.195 305.123L311.785 305.139C311.6 305.175 311.434 305.235 311.29 305.32C311.146 305.404 311.041 305.499 310.977 305.607C310.902 305.733 310.91 305.857 310.981 305.982C311.039 306.113 311.171 306.223 311.353 306.329C311.537 306.434 311.749 306.511 311.955 306.544C312.17 306.584 312.385 306.576 312.58 306.533C312.745 306.507 312.92 306.453 313.075 306.362C313.232 306.271 313.335 306.176 313.389 306.075L313.423 305.819L313.444 305.807L313.783 305.797C313.948 305.772 314.113 305.724 314.247 305.646C314.434 305.537 314.538 305.417 314.561 305.274ZM312.58 306.016C312.476 306.076 312.352 306.113 312.239 306.132C312.085 306.152 311.953 306.121 311.831 306.053C311.699 305.976 311.649 305.899 311.693 305.803L311.89 305.619C311.994 305.558 312.096 305.522 312.189 305.503C312.364 305.472 312.508 305.494 312.639 305.571C312.781 305.653 312.82 305.748 312.778 305.844L312.58 306.016ZM313.825 305.221L313.7 305.342L313.442 305.432C313.287 305.451 313.144 305.428 313.012 305.353C312.889 305.282 312.849 305.2 312.892 305.117L313.038 304.974L313.234 304.896L313.491 304.887L313.695 304.957L313.835 305.086L313.825 305.221Z" fill="black"/>
<path d="M340.563 319.985L340.543 319.962L340.075 319.693L340.004 319.664L339.402 319.544L339.32 319.556L338.988 319.762L338.978 319.802L339.007 319.808L339.485 319.966L339.496 319.982V319.994L337.34 321.248L337.32 321.271L337.34 321.295L337.796 321.558L337.837 321.57L337.878 321.557L340.531 320.016L340.563 319.985Z" fill="black"/>
<path d="M342.184 321.042C342.126 320.901 342.016 320.776 341.823 320.665C341.63 320.553 341.405 320.484 341.181 320.45C340.945 320.423 340.72 320.435 340.503 320.49C340.338 320.528 340.172 320.588 340.018 320.678C339.841 320.781 339.717 320.888 339.674 320.996C339.59 321.116 339.589 321.234 339.638 321.347C339.698 321.453 339.787 321.553 339.938 321.641C340.112 321.741 340.296 321.799 340.489 321.804L340.52 321.81L340.51 321.827L340.146 322.038L339.827 322.118L339.511 322.031L339.37 321.854L339.506 321.68L339.536 321.662L339.558 321.637L339.538 321.603L339.092 321.345L339.041 321.339L339 321.353L338.896 321.413C338.752 321.497 338.658 321.587 338.623 321.689C338.592 321.79 338.61 321.896 338.68 322.009C338.751 322.109 338.87 322.215 339.033 322.308C339.206 322.408 339.388 322.478 339.562 322.518C339.758 322.559 339.942 322.568 340.127 322.543C340.301 322.523 340.466 322.474 340.61 322.391L341.792 321.703C341.938 321.619 342.041 321.535 342.116 321.446C342.21 321.309 342.233 321.178 342.184 321.042ZM341.463 321.213L341.276 321.382C341.162 321.448 341.059 321.485 340.945 321.504C340.78 321.53 340.637 321.507 340.507 321.43C340.375 321.353 340.334 321.271 340.377 321.175L340.565 320.984L340.876 320.875C341.05 320.844 341.204 320.871 341.336 320.948C341.476 321.03 341.516 321.112 341.463 321.213Z" fill="black"/>
<path d="M365.294 336.88L365.284 336.874L365.305 336.862L365.428 336.86C365.798 336.858 366.075 336.849 366.259 336.848L366.824 336.825C367.059 336.805 367.265 336.78 367.441 336.748C367.606 336.711 367.75 336.662 367.864 336.596C368.009 336.512 368.094 336.416 368.147 336.303C368.19 336.196 368.171 336.077 368.113 335.96C368.053 335.841 367.922 335.729 367.739 335.624C367.576 335.531 367.404 335.466 367.22 335.421C367.026 335.381 366.831 335.365 366.646 335.378C366.461 335.404 366.286 335.447 366.14 335.531L365.963 335.632L365.933 335.663L365.954 335.687L366.411 335.951L366.451 335.963L366.503 335.944L366.595 335.89L366.935 335.811C367.048 335.816 367.161 335.845 367.262 335.904C367.364 335.962 367.424 336.032 367.433 336.098L367.297 336.282C367.163 336.361 366.865 336.406 366.36 336.426L365.888 336.442C365.826 336.442 365.653 336.45 365.365 336.464C365.087 336.473 364.831 336.482 364.574 336.478L364.493 336.502L364.13 336.714L364.11 336.738L364.139 336.766L365.863 337.762L365.905 337.774L365.946 337.761L366.329 337.537L366.349 337.514L366.34 337.485L365.294 336.88Z" fill="black"/>
<path d="M370.37 337.422C370.352 337.233 370.212 337.055 369.937 336.897C369.654 336.732 369.348 336.653 369.029 336.649C368.701 336.651 368.402 336.72 368.124 336.881L367.086 337.483C366.816 337.64 366.692 337.818 366.687 338.009C366.684 338.2 366.835 338.371 367.119 338.536C367.394 338.693 367.69 338.78 368.027 338.782C368.355 338.78 368.654 338.701 368.923 338.544L369.959 337.942C370.239 337.779 370.366 337.612 370.37 337.422ZM369.442 337.62L368.365 338.246C368.24 338.319 368.107 338.35 367.973 338.356C367.831 338.357 367.707 338.323 367.596 338.258C367.472 338.187 367.424 338.124 367.425 338.039C367.426 337.958 367.49 337.885 367.613 337.812L368.691 337.185C368.806 337.119 368.939 337.077 369.082 337.075C369.226 337.074 369.337 337.102 369.461 337.173C369.572 337.238 369.633 337.308 369.632 337.392C369.621 337.47 369.557 337.553 369.442 337.62Z" fill="black"/>
<path d="M205.638 270.531L205.616 270.506L204.582 269.909L204.571 269.892L204.592 269.878L204.706 269.884C205.086 269.875 205.351 269.872 205.556 269.871L206.11 269.843C206.357 269.829 206.552 269.799 206.728 269.766C206.892 269.73 207.036 269.682 207.151 269.614C207.296 269.531 207.381 269.435 207.423 269.327C207.476 269.215 207.469 269.101 207.399 268.978C207.329 268.865 207.208 268.747 207.036 268.648C206.863 268.549 206.691 268.484 206.496 268.444C206.313 268.399 206.118 268.381 205.934 268.407C205.749 268.421 205.573 268.463 205.429 268.548L205.242 268.656L205.22 268.681L205.241 268.705L205.698 268.968L205.738 268.98L205.78 268.968L205.884 268.908L206.214 268.834C206.337 268.834 206.448 268.862 206.56 268.926C206.661 268.985 206.711 269.05 206.711 269.121L206.594 269.305C206.459 269.383 206.14 269.429 205.649 269.443L205.187 269.464C205.105 269.465 204.931 269.473 204.653 269.481C204.376 269.489 204.118 269.497 203.872 269.5L203.779 269.518L203.417 269.729L203.407 269.759L203.428 269.783L205.152 270.778L205.192 270.79L205.243 270.784L205.626 270.56L205.638 270.531Z" fill="black"/>
<path d="M209.574 270.57C209.628 270.456 209.619 270.344 209.55 270.22C209.48 270.108 209.359 269.99 209.187 269.891C209.012 269.79 208.841 269.726 208.647 269.686C208.463 269.64 208.268 269.624 208.083 269.65C207.899 269.663 207.724 269.706 207.579 269.79L207.393 269.899L207.371 269.924L207.392 269.947L207.849 270.211L207.889 270.223L207.931 270.211L208.034 270.15L208.364 270.076C208.487 270.075 208.598 270.104 208.71 270.169C208.812 270.228 208.862 270.293 208.861 270.363L208.744 270.548C208.61 270.626 208.291 270.67 207.799 270.686L207.337 270.707C207.255 270.707 207.08 270.714 206.804 270.723C206.527 270.731 206.27 270.74 206.015 270.736L205.933 270.761L205.57 270.972L205.559 271.001L205.579 271.023L207.305 272.019L207.344 272.031L207.397 272.024L207.78 271.802L207.791 271.771L207.771 271.748L206.735 271.15L206.726 271.132L206.746 271.12L206.859 271.125C207.24 271.116 207.505 271.114 207.711 271.112L208.264 271.084C208.511 271.071 208.707 271.039 208.881 271.007C209.046 270.971 209.19 270.923 209.304 270.856C209.447 270.773 209.531 270.677 209.574 270.57Z" fill="black"/>
<path d="M232.334 285.931V285.919L232.355 285.905L232.468 285.911C232.848 285.902 233.114 285.899 233.309 285.892L233.874 285.869C234.11 285.849 234.315 285.823 234.48 285.787C234.655 285.757 234.789 285.702 234.903 285.635C235.048 285.552 235.141 285.46 235.184 285.354C235.228 285.236 235.219 285.122 235.159 285.005C235.09 284.892 234.969 284.775 234.786 284.67C234.624 284.576 234.441 284.506 234.246 284.466C234.063 284.421 233.879 284.41 233.683 284.429C233.499 284.443 233.334 284.491 233.178 284.57L232.993 284.678L232.98 284.708L233.002 284.732L233.458 284.995L233.499 285.007L233.54 284.995L233.644 284.934L233.964 284.856C234.096 284.861 234.207 284.889 234.31 284.947C234.411 285.006 234.461 285.071 234.47 285.148L234.343 285.326C234.21 285.405 233.902 285.456 233.408 285.47L232.935 285.486C232.863 285.492 232.688 285.501 232.411 285.508C232.134 285.515 231.867 285.518 231.622 285.52L231.54 285.545L231.177 285.756L231.156 285.781L231.177 285.804L232.912 286.806L232.952 286.818L232.994 286.806L233.376 286.582L233.397 286.558L233.378 286.533L232.334 285.931Z" fill="black"/>
<path d="M237.647 286.381L237.637 286.351L236.033 285.425L235.983 285.42L235.932 285.426L235.548 285.65L235.537 285.679L235.556 285.704L236.459 286.224V286.236L236.437 286.25L235.28 286.206L235.229 286.224L235.208 286.249L235.109 286.564L235.119 286.593L235.16 286.606L235.344 286.627L235.456 286.669C235.597 286.75 235.627 286.84 235.575 286.942C235.533 287.014 235.448 287.084 235.324 287.157C235.22 287.218 235.108 287.26 235.004 287.284C234.82 287.32 234.655 287.311 234.503 287.223L234.382 287.081L234.426 286.926L234.582 286.789L234.573 286.735L234.127 286.477L234.034 286.472C233.92 286.549 233.837 286.623 233.764 286.7C233.659 286.83 233.635 286.975 233.673 287.116C233.722 287.264 233.853 287.389 234.046 287.5C234.239 287.611 234.453 287.686 234.688 287.715C234.933 287.748 235.17 287.728 235.396 287.667C235.561 287.618 235.716 287.563 235.862 287.48C236.017 287.39 236.121 287.293 236.194 287.192C236.33 287.008 236.303 286.835 236.121 286.682L236.111 286.664H236.132L237.117 286.68L237.189 286.662L237.624 286.409L237.647 286.381Z" fill="black"/>
<path d="M259.894 301.804L260.006 301.81C260.386 301.8 260.651 301.798 260.847 301.791L261.413 301.769C261.649 301.749 261.854 301.723 262.029 301.692C262.194 301.655 262.327 301.601 262.442 301.534C262.587 301.45 262.68 301.359 262.724 301.253C262.765 301.133 262.758 301.022 262.698 300.903C262.629 300.791 262.508 300.672 262.324 300.567C262.162 300.473 261.989 300.41 261.794 300.369C261.612 300.324 261.415 300.307 261.221 300.327C261.036 300.34 260.871 300.389 260.716 300.467L260.53 300.576L260.518 300.605L260.539 300.628L260.996 300.892L261.036 300.905L261.078 300.892L261.182 300.831L261.512 300.757C261.634 300.757 261.746 300.785 261.848 300.844C261.948 300.902 262.009 300.972 262.008 301.044L261.882 301.222C261.747 301.301 261.438 301.351 260.945 301.367L260.473 301.382C260.4 301.389 260.226 301.397 259.949 301.404C259.671 301.413 259.415 301.422 259.159 301.418L259.076 301.442L258.714 301.654L258.692 301.678L258.723 301.706L260.447 302.702L260.488 302.714L260.528 302.701L260.91 302.479L260.932 302.454L260.912 302.43L259.867 301.826V301.815L259.894 301.804Z" fill="black"/>
<path d="M264.282 301.734L264.189 301.729L261.915 302.252L261.842 302.27L261.521 302.457L261.51 302.487L261.531 302.509L262.707 303.19V303.214L262.064 303.587L262.043 303.611L262.075 303.639L262.521 303.897L262.561 303.909L262.602 303.897L263.244 303.524H263.286L263.46 303.623L263.5 303.634L263.54 303.622L263.934 303.394L263.965 303.364L263.946 303.34L263.774 303.241V303.218L264.26 302.933L264.282 302.91L264.261 302.887L263.815 302.629L263.765 302.61L263.721 302.623L263.235 302.906L263.194 302.907L262.616 302.573L262.607 302.555L262.616 302.549L264.738 302.069L264.779 302.046L264.76 302.009L264.282 301.734Z" fill="black"/>
<path d="M287.694 317.891L287.684 317.873L287.714 317.866L287.816 317.865C288.196 317.855 288.473 317.86 288.668 317.852L289.222 317.825C289.469 317.81 289.674 317.786 289.839 317.748C290.003 317.711 290.148 317.662 290.262 317.596C290.407 317.512 290.491 317.417 290.534 317.309C290.588 317.196 290.579 317.083 290.519 316.965C290.441 316.846 290.329 316.734 290.147 316.63C289.983 316.537 289.801 316.466 289.607 316.427C289.423 316.381 289.239 316.37 289.043 316.389C288.859 316.404 288.694 316.451 288.539 316.53L288.353 316.638L288.331 316.663L288.361 316.693L288.807 316.951L288.848 316.963L288.899 316.956L289.003 316.896L289.323 316.816C289.455 316.82 289.566 316.849 289.669 316.907C289.77 316.966 289.819 317.032 289.819 317.102L289.702 317.286C289.569 317.364 289.249 317.409 288.766 317.43L288.294 317.446C288.222 317.453 288.047 317.461 287.77 317.469C287.493 317.478 287.226 317.479 286.981 317.482L286.899 317.507L286.536 317.717L286.515 317.742L286.536 317.766L288.271 318.767L288.311 318.779L288.353 318.767L288.735 318.543L288.756 318.519L288.737 318.495L287.694 317.891Z" fill="black"/>
<path d="M291.435 317.409L291.372 317.398L291.332 317.411L289.746 318.332L289.724 318.356L289.755 318.386L290.221 318.656L290.313 318.661L290.57 318.652L290.825 318.739L290.955 318.887L290.9 319.036L290.733 319.179L290.496 319.269L290.209 319.295L289.965 319.225L289.834 319.091L289.878 318.923L289.889 318.905L289.919 318.875L289.911 318.821L289.444 318.551L289.362 318.552L289.351 318.558L289.194 318.719C289.101 318.845 289.067 318.982 289.115 319.118C289.175 319.261 289.295 319.39 289.488 319.5C289.691 319.619 289.916 319.687 290.152 319.715C290.407 319.743 290.634 319.73 290.87 319.663C291.013 319.626 291.159 319.565 291.283 319.492C291.408 319.42 291.513 319.335 291.596 319.24C291.711 319.114 291.733 318.983 291.694 318.854C291.656 318.724 291.546 318.6 291.374 318.501C291.221 318.413 291.047 318.36 290.853 318.331L290.842 318.314L291.432 317.983L291.463 317.976L292.539 318.597L292.58 318.609L292.631 318.603L293.015 318.38L293.026 318.349L293.016 318.32L291.435 317.409Z" fill="black"/>
<path d="M315.384 333.876V333.864L315.404 333.852L315.518 333.858C315.897 333.848 316.163 333.846 316.359 333.838L316.923 333.815C317.159 333.794 317.364 333.77 317.54 333.738C317.705 333.702 317.848 333.654 317.963 333.587C318.109 333.502 318.193 333.407 318.236 333.3C318.288 333.186 318.27 333.069 318.211 332.95C318.14 332.836 318.021 332.719 317.837 332.615C317.675 332.521 317.502 332.456 317.307 332.417C317.124 332.371 316.928 332.355 316.733 332.375C316.558 332.394 316.384 332.437 316.239 332.521L316.053 332.629L316.032 332.654L316.053 332.678L316.51 332.941L316.549 332.954L316.591 332.941L316.695 332.88L317.025 332.806C317.148 332.806 317.259 332.834 317.361 332.893C317.472 332.957 317.523 333.021 317.522 333.093L317.406 333.278C317.272 333.356 316.951 333.4 316.46 333.416L315.987 333.431C315.915 333.438 315.742 333.445 315.464 333.453C315.187 333.462 314.931 333.471 314.675 333.467L314.592 333.491L314.23 333.703L314.209 333.727L314.238 333.755L315.963 334.751L316.003 334.763L316.054 334.756L316.438 334.534L316.45 334.503L316.43 334.481L315.384 333.876Z" fill="black"/>
<path d="M319.967 333.846C319.795 333.747 319.623 333.682 319.428 333.643C319.235 333.603 319.048 333.593 318.875 333.612C318.69 333.637 318.527 333.687 318.391 333.764L317.208 334.452C317.064 334.535 316.96 334.62 316.896 334.716C316.79 334.847 316.758 334.983 316.807 335.12C316.866 335.262 316.986 335.381 317.19 335.498C317.383 335.609 317.587 335.677 317.823 335.707C318.048 335.74 318.274 335.726 318.501 335.677C318.666 335.629 318.831 335.567 318.976 335.484C319.162 335.376 319.288 335.268 319.34 335.165C319.404 335.047 319.417 334.933 319.367 334.822C319.317 334.708 319.207 334.609 319.054 334.522C318.881 334.423 318.699 334.364 318.505 334.359L318.484 334.347V334.335L318.856 334.118L319.166 334.045L319.492 334.126L319.624 334.308L319.497 334.475L319.455 334.5L319.434 334.524L319.464 334.553L319.91 334.811L319.951 334.823L319.992 334.811L320.107 334.744C320.24 334.666 320.335 334.575 320.367 334.474C320.4 334.374 320.382 334.266 320.322 334.16C320.251 334.046 320.14 333.946 319.967 333.846ZM318.507 334.732C318.629 334.803 318.667 334.884 318.625 334.98C318.594 335.046 318.541 335.11 318.437 335.172L318.128 335.282C317.952 335.311 317.798 335.295 317.656 335.213C317.524 335.136 317.485 335.041 317.549 334.947L317.736 334.778C317.84 334.717 317.953 334.675 318.046 334.656C318.22 334.627 318.363 334.649 318.507 334.732Z" fill="black"/>
<path d="M343.155 349.911L343.153 349.898L343.175 349.886L343.288 349.891C343.669 349.883 343.934 349.88 344.13 349.872L344.693 349.85C344.929 349.829 345.134 349.804 345.31 349.773C345.475 349.736 345.619 349.687 345.734 349.621C345.879 349.537 345.964 349.44 346.007 349.334C346.059 349.22 346.041 349.103 345.982 348.983C345.913 348.871 345.792 348.753 345.608 348.648C345.446 348.555 345.274 348.491 345.078 348.452C344.895 348.405 344.701 348.388 344.505 348.409C344.331 348.428 344.156 348.471 344.011 348.554L343.824 348.663L343.804 348.687L343.823 348.712L344.28 348.976L344.32 348.988L344.362 348.975L344.465 348.915L344.796 348.84C344.919 348.839 345.03 348.868 345.131 348.927C345.233 348.986 345.293 349.055 345.293 349.127L345.166 349.306C345.032 349.384 344.723 349.434 344.23 349.45L343.757 349.465C343.685 349.472 343.511 349.479 343.233 349.487C342.955 349.495 342.699 349.504 342.443 349.499L342.36 349.525L341.997 349.736L341.977 349.758L342.006 349.787L343.731 350.784L343.772 350.797L343.812 350.783L344.196 350.559L344.218 350.535L344.196 350.511L343.155 349.911Z" fill="black"/>
<path d="M346.805 349.375L346.753 349.371L346.713 349.383L346.08 349.751L346.058 349.774L346.079 349.798L346.435 350.002L346.475 350.013L346.516 350.002L346.703 349.894H346.744L347.465 350.31L347.443 350.332L344.424 351.124L344.415 351.177L344.891 351.452L344.983 351.47L348.011 350.661L348.084 350.63L348.478 350.402L348.497 350.377L348.489 350.348L346.805 349.375Z" fill="black"/>
<path d="M182.363 282.88V282.868L182.374 282.861L182.497 282.86C182.866 282.858 183.144 282.849 183.339 282.842L183.893 282.814C184.139 282.799 184.345 282.775 184.51 282.737C184.683 282.706 184.819 282.651 184.923 282.591C185.067 282.507 185.172 282.412 185.204 282.298C185.258 282.184 185.249 282.072 185.179 281.961C185.12 281.842 184.989 281.73 184.805 281.625C184.643 281.532 184.471 281.455 184.275 281.416C184.08 281.377 183.898 281.366 183.713 281.379C183.517 281.399 183.353 281.448 183.207 281.52L183.021 281.629L183.01 281.657L183.019 281.686L183.466 281.944L183.527 281.956L183.569 281.944L183.662 281.889L183.992 281.803C184.125 281.808 184.237 281.837 184.339 281.895C184.44 281.955 184.49 282.02 184.499 282.097L184.363 282.281C184.238 282.353 183.929 282.403 183.427 282.425L182.965 282.435C182.892 282.441 182.72 282.448 182.441 282.457C182.164 282.466 181.887 282.474 181.642 282.477L181.57 282.495L181.207 282.705L181.185 282.729L181.194 282.759L182.93 283.761L182.982 283.766L183.023 283.753L183.405 283.53L183.426 283.507L183.406 283.482L182.363 282.88Z" fill="black"/>
<path d="M186.895 282.831C186.703 282.72 186.499 282.651 186.263 282.623C186.029 282.595 185.801 282.596 185.586 282.651C185.421 282.688 185.245 282.755 185.09 282.846C184.913 282.948 184.81 283.056 184.747 283.163C184.682 283.283 184.67 283.394 184.719 283.508C184.768 283.62 184.868 283.727 185.021 283.813C185.194 283.914 185.376 283.96 185.581 283.97L185.591 283.976L185.592 283.988L185.219 284.206L184.909 284.28L184.593 284.204L184.452 284.027L184.579 283.849L184.621 283.824L184.643 283.8L184.622 283.775L184.165 283.513L184.125 283.501L184.083 283.513L183.97 283.579C183.835 283.658 183.741 283.749 183.718 283.855C183.675 283.962 183.685 284.063 183.763 284.17C183.834 284.283 183.944 284.383 184.116 284.482C184.279 284.576 184.462 284.646 184.656 284.686C184.84 284.731 185.035 284.736 185.209 284.716C185.385 284.697 185.548 284.637 185.684 284.558L186.866 283.871C187.011 283.786 187.125 283.696 187.188 283.613C187.293 283.482 187.317 283.338 187.258 283.209C187.209 283.073 187.089 282.943 186.895 282.831ZM186.537 283.381L186.349 283.549C186.246 283.609 186.131 283.652 186.029 283.664C185.864 283.701 185.711 283.673 185.58 283.597C185.458 283.526 185.418 283.443 185.452 283.342L185.65 283.157L185.959 283.047C186.134 283.017 186.289 283.033 186.42 283.11C186.561 283.19 186.601 283.285 186.537 283.381Z" fill="black"/>
<path d="M211.786 298.895C211.902 298.71 211.885 298.543 211.714 298.384L211.693 298.373L211.722 298.365L212.688 298.383L212.779 298.363L213.216 298.11L213.237 298.086L213.207 298.058L211.614 297.137L211.564 297.119L211.522 297.131L211.138 297.355L211.116 297.379L211.136 297.415L212.039 297.937L212.05 297.943L212.019 297.949L210.871 297.911L210.819 297.929L210.789 297.948L210.702 298.27L210.7 298.306L210.751 298.31L210.936 298.334L211.048 298.374C211.179 298.451 211.219 298.545 211.155 298.653C211.124 298.719 211.041 298.789 210.916 298.863C210.812 298.923 210.698 298.965 210.586 298.985C210.4 299.033 210.237 299.012 210.095 298.929L209.974 298.787L210.018 298.633L210.163 298.501L210.164 298.442L209.707 298.179L209.616 298.185C209.501 298.252 209.408 298.329 209.355 298.407C209.239 298.545 209.217 298.688 209.266 298.824C209.315 298.972 209.425 299.096 209.628 299.212C209.821 299.325 210.046 299.393 210.28 299.421C210.515 299.448 210.762 299.436 210.988 299.374C211.143 299.331 211.298 299.265 211.443 299.181C211.598 299.085 211.711 298.996 211.786 298.895Z" fill="black"/>
<path d="M214.577 298.811C214.294 298.648 213.997 298.561 213.668 298.563C213.35 298.561 213.052 298.64 212.782 298.797L211.746 299.398C211.466 299.561 211.329 299.734 211.325 299.925C211.333 300.108 211.473 300.286 211.758 300.45C212.041 300.614 212.347 300.694 212.665 300.698C213.003 300.702 213.301 300.621 213.582 300.46L214.619 299.857C214.889 299.701 215.024 299.528 215.007 299.337C215.011 299.147 214.861 298.976 214.577 298.811ZM214.08 299.535L213.002 300.162C212.888 300.228 212.754 300.27 212.611 300.272C212.479 300.279 212.355 300.244 212.233 300.174C212.121 300.109 212.06 300.04 212.072 299.961C212.074 299.878 212.147 299.8 212.26 299.733L213.339 299.107C213.464 299.034 213.586 298.997 213.73 298.996C213.863 298.99 213.997 299.018 214.108 299.083C214.23 299.152 214.28 299.229 214.268 299.308C214.268 299.391 214.204 299.463 214.08 299.535Z" fill="black"/>
<path d="M239.892 315.121C240.018 314.941 239.99 314.769 239.819 314.61L239.809 314.604L239.83 314.592L240.804 314.614L240.895 314.595L241.332 314.342L241.341 314.313L241.322 314.289L239.717 313.364L239.677 313.351L239.637 313.364L239.253 313.587L239.231 313.612L239.242 313.641L240.144 314.163L240.155 314.168L240.133 314.18L238.985 314.142L238.924 314.155L238.903 314.18L238.806 314.495L238.814 314.537L238.866 314.543L239.049 314.565L239.151 314.6C239.293 314.681 239.332 314.777 239.259 314.879C239.227 314.945 239.144 315.016 239.021 315.089C238.916 315.149 238.803 315.192 238.701 315.215C238.515 315.264 238.35 315.243 238.208 315.16L238.079 315.012L238.121 314.858L238.268 314.726L238.269 314.666L237.823 314.408L237.721 314.41C237.617 314.483 237.523 314.56 237.46 314.632C237.355 314.775 237.322 314.912 237.382 315.055C237.42 315.196 237.54 315.327 237.733 315.438C237.936 315.556 238.151 315.618 238.395 315.653C238.63 315.68 238.867 315.662 239.093 315.6C239.258 315.563 239.413 315.496 239.558 315.413C239.714 315.317 239.817 315.222 239.892 315.121Z" fill="black"/>
<path d="M242.193 314.792L242.123 314.764L241.53 314.637L241.438 314.656L241.116 314.854L241.105 314.896L241.125 314.908L241.604 315.064L241.625 315.077L241.604 315.088L239.459 316.335L239.448 316.365L239.458 316.394L239.904 316.652L239.967 316.663L240.007 316.652L242.661 315.11L242.682 315.086L242.65 315.056L242.193 314.792Z" fill="black"/>
<path d="M272.633 214.32C272.701 213.94 272.658 213.59 272.467 213.277C272.288 212.957 271.999 212.539 271.598 212.03C271.227 211.576 270.966 211.234 270.817 211.004C270.667 210.773 270.598 210.567 270.622 210.399C270.636 210.227 270.761 210.072 270.989 209.938C271.312 209.753 271.692 209.672 272.101 209.705C272.532 209.737 272.95 209.871 273.376 210.117C273.924 210.433 274.214 210.757 274.25 211.089C274.284 211.434 274.117 211.709 273.722 211.936L273.618 211.997L273.543 212.099L273.614 212.187L275.176 213.089L275.33 213.129L275.505 213.086L275.712 212.965C276.293 212.628 276.669 212.232 276.81 211.798C276.95 211.364 276.877 210.925 276.587 210.47C276.299 210.014 275.814 209.591 275.125 209.193C274.475 208.817 273.803 208.55 273.078 208.395C272.363 208.235 271.657 208.2 270.958 208.275C270.27 208.357 269.651 208.554 269.092 208.879C268.532 209.204 268.196 209.563 268.108 209.943C268.009 210.329 268.063 210.709 268.251 211.082C268.45 211.45 268.75 211.874 269.142 212.341C269.482 212.777 269.722 213.096 269.852 213.302C269.983 213.51 270.05 213.704 270.036 213.878C270.022 214.05 269.908 214.199 269.689 214.325C269.389 214.501 269.017 214.587 268.578 214.572C268.128 214.551 267.669 214.407 267.191 214.132C266.623 213.803 266.301 213.473 266.225 213.13C266.139 212.793 266.287 212.518 266.66 212.302L266.866 212.181L266.931 212.084L266.871 211.991L265.328 211.1L265.154 211.061L264.999 211.104L264.689 211.284C264.107 211.62 263.743 211.997 263.601 212.421C263.46 212.844 263.533 213.283 263.843 213.725C264.154 214.18 264.668 214.61 265.389 215.025C266.455 215.64 267.546 215.981 268.662 216.051C269.799 216.119 270.787 215.897 271.647 215.397C272.229 215.06 272.565 214.702 272.633 214.32Z" fill="#B24CC2"/>
<path d="M280.295 219.788L280.224 219.701L278.704 218.751C278.592 218.685 278.489 218.686 278.396 218.741C277.908 219.024 277.373 219.159 276.789 219.158C276.195 219.163 275.664 219.025 275.187 218.749C274.701 218.469 274.459 218.161 274.465 217.816C274.46 217.478 274.702 217.174 275.189 216.889L278.516 214.956C279.003 214.673 279.539 214.526 280.123 214.527C280.718 214.522 281.249 214.66 281.736 214.942C282.214 215.217 282.453 215.524 282.447 215.87C282.451 216.207 282.21 216.523 281.721 216.808L281.698 216.974L281.728 216.993L283.415 217.846C283.528 217.898 283.641 217.903 283.723 217.855C284.365 217.481 284.772 217.068 284.956 216.622C285.149 216.169 285.116 215.718 284.847 215.264C284.588 214.802 284.104 214.378 283.404 213.973C282.704 213.57 281.951 213.29 281.142 213.148C280.335 212.995 279.535 212.988 278.732 213.114C277.94 213.245 277.219 213.5 276.556 213.887L273.364 215.741C272.701 216.126 272.252 216.552 272.028 217.011C271.814 217.477 271.827 217.94 272.086 218.411C272.332 218.879 272.818 219.314 273.518 219.719C274.217 220.122 274.961 220.396 275.747 220.55C276.543 220.698 277.334 220.71 278.115 220.596C278.898 220.483 279.609 220.245 280.24 219.879L280.295 219.788Z" fill="#B24CC2"/>
<path d="M295.04 220.87L294.981 220.776L293.397 219.862L293.234 219.828L293.069 219.865L289.349 222.026L289.205 222.027L286.223 220.305L286.224 220.222L289.944 218.061L290.006 217.964L289.946 217.87L288.364 216.956L288.201 216.922L288.036 216.958L278.689 222.39L278.626 222.485L278.686 222.581L280.268 223.495L280.431 223.529L280.597 223.492L284.409 221.276L284.554 221.274L287.537 222.996L287.535 223.08L283.723 225.296L283.658 225.391L283.718 225.485L285.302 226.399L285.464 226.435L285.629 226.397L294.977 220.965L295.04 220.87Z" fill="#B24CC2"/>
<path d="M295.177 230.217L295.107 230.116L290.672 227.558L290.664 227.479L292.901 226.179L293.047 226.178L295.959 227.859L296.121 227.894L296.286 227.857L297.623 227.08L297.696 226.978L297.628 226.889L294.715 225.209L294.716 225.125L296.862 223.878L296.995 223.883L301.428 226.443L301.602 226.483L301.756 226.441L303.104 225.657L303.178 225.568L303.107 225.468L296.857 221.86L296.694 221.824L296.529 221.862L287.182 227.294L287.119 227.389L287.179 227.483L293.429 231.091L293.603 231.132L293.757 231.089L295.104 230.307L295.177 230.217Z" fill="#B24CC2"/>
<path d="M309.704 230.896C309.876 230.479 309.822 230.053 309.552 229.62C309.283 229.178 308.819 228.766 308.14 228.373L304.761 226.421L304.597 226.387L304.432 226.424L295.084 231.855L295.021 231.952L295.08 232.045L298.459 233.996C299.139 234.388 299.853 234.656 300.619 234.811C301.364 234.965 302.102 234.994 302.823 234.893C303.551 234.799 304.202 234.585 304.783 234.249L308.597 232.032C309.177 231.696 309.542 231.32 309.704 230.896ZM306.368 231.12L303.195 232.962C302.699 233.241 302.183 233.387 301.64 233.396C301.097 233.418 300.628 233.303 300.211 233.064L298.577 232.12L298.568 232.042L304.766 228.441L304.898 228.447L306.522 229.384C306.947 229.63 307.147 229.915 307.131 230.229C307.096 230.544 306.854 230.836 306.368 231.12Z" fill="#B24CC2"/>
<path d="M319.734 235.258L319.797 235.163L319.738 235.069L318.155 234.155L317.99 234.121L317.825 234.157L311.505 237.832C311.017 238.114 310.471 238.256 309.886 238.266C309.293 238.27 308.76 238.132 308.284 237.856C307.797 237.576 307.557 237.268 307.572 236.93C307.579 236.585 307.821 236.269 308.308 235.985L314.63 232.312L314.704 232.223L314.633 232.123L313.05 231.209L312.887 231.175L312.722 231.211L306.421 234.872C305.758 235.257 305.34 235.677 305.126 236.142C304.912 236.595 304.935 237.064 305.194 237.525C305.441 237.993 305.915 238.422 306.616 238.826C307.305 239.225 308.049 239.497 308.857 239.639C309.652 239.787 310.463 239.799 311.254 239.679C312.046 239.549 312.768 239.304 313.432 238.919L319.734 235.258Z" fill="#B24CC2"/>
<path d="M319.933 244.511L319.865 244.411L315.442 241.856V241.785L323.214 237.268L323.278 237.173L323.218 237.078L321.635 236.165L321.461 236.123L321.307 236.166L311.959 241.599L311.886 241.688L311.956 241.788L318.187 245.385L318.359 245.426L318.514 245.383L319.862 244.6L319.933 244.511Z" fill="#B24CC2"/>
<path d="M335.617 244.236L329.366 240.627L329.203 240.593L329.039 240.631L319.691 246.061L319.628 246.158L319.687 246.253L325.939 249.862L326.111 249.901L326.265 249.858L327.614 249.075L327.685 248.986L327.617 248.885L323.184 246.325L323.174 246.247L325.411 244.947L325.555 244.946L328.458 246.621L328.631 246.661L328.796 246.625L330.132 245.848L330.206 245.746L330.126 245.652L327.223 243.977L327.225 243.894L329.371 242.646L329.505 242.652L333.938 245.212L334.112 245.251L334.266 245.21L335.614 244.427L335.687 244.336L335.617 244.236Z" fill="#B24CC2"/>
<path d="M440.172 326.867C440.442 326.711 440.577 326.537 440.571 326.353C440.574 326.163 440.434 325.986 440.15 325.821C439.866 325.658 439.56 325.577 439.231 325.579C438.913 325.577 438.614 325.656 438.345 325.812L437.307 326.414C437.028 326.576 436.891 326.75 436.898 326.934C436.894 327.124 437.035 327.301 437.32 327.466C437.604 327.63 437.91 327.71 438.237 327.708C438.556 327.712 438.854 327.631 439.134 327.47L440.172 326.867ZM438.186 327.282C438.043 327.283 437.909 327.253 437.797 327.19C437.686 327.125 437.636 327.048 437.637 326.964C437.628 326.887 437.702 326.81 437.816 326.743L438.894 326.116C439.018 326.044 439.14 326.007 439.285 326.006C439.428 326.005 439.561 326.033 439.672 326.097C439.784 326.162 439.834 326.239 439.832 326.324C439.831 326.405 439.767 326.477 439.644 326.55L438.566 327.176C438.452 327.244 438.318 327.286 438.186 327.282Z" fill="white"/>
<path d="M443.01 327.521L441.336 326.554L441.285 326.539L441.243 326.55L440.61 326.917L440.592 326.942L440.61 326.965L440.966 327.17L441.008 327.181L441.048 327.169L441.235 327.06H441.275L441.996 327.476L441.975 327.501L438.956 328.291L438.945 328.345L439.423 328.62L439.514 328.637L442.542 327.828L442.625 327.804L443.019 327.575L443.031 327.545L443.01 327.521Z" fill="white"/>
<path d="M418.071 338.934L418.051 338.911L417.584 338.642L417.513 338.613L416.921 338.499L416.827 338.504L416.508 338.704L416.495 338.758H416.516L417.005 338.918L417.016 338.925L417.005 338.942L414.859 340.19L414.838 340.213L414.858 340.249L415.304 340.507L415.355 340.513L415.398 340.499L418.05 338.958L418.071 338.934Z" fill="white"/>
<path d="M419.197 339.573L419.106 339.556L416.829 340.079L416.758 340.109L416.448 340.29L416.426 340.313L416.445 340.349L417.623 341.028L417.622 341.053L416.989 341.419L416.97 341.444L416.979 341.473L417.436 341.737L417.487 341.742L417.528 341.73L418.16 341.362H418.201L418.363 341.456L418.414 341.461L418.467 341.456L418.861 341.226L418.871 341.197L418.861 341.166L418.699 341.074V341.05L419.175 340.773L419.207 340.744L419.186 340.719L418.729 340.455L418.689 340.443L418.639 340.463L418.161 340.74H418.121L417.532 340.4L417.522 340.393L417.543 340.382L419.653 339.896L419.704 339.878L419.675 339.848L419.197 339.573Z" fill="white"/>
<path d="M393.419 353.119L393.398 353.107L393.419 353.095L393.541 353.094C393.912 353.091 394.188 353.083 394.383 353.086L394.937 353.06C395.183 353.045 395.378 353.014 395.553 352.983C395.718 352.946 395.863 352.897 395.977 352.831C396.121 352.747 396.207 352.651 396.26 352.538C396.303 352.43 396.293 352.317 396.225 352.193C396.166 352.075 396.036 351.963 395.862 351.863C395.69 351.764 395.516 351.7 395.332 351.653C395.139 351.614 394.944 351.597 394.77 351.616C394.574 351.637 394.398 351.68 394.253 351.763L394.077 351.866L394.046 351.895L394.067 351.919L394.523 352.183L394.564 352.196L394.616 352.176L394.708 352.122L395.048 352.042C395.161 352.047 395.274 352.075 395.383 352.139C395.486 352.198 395.536 352.264 395.544 352.329L395.418 352.518C395.284 352.596 394.976 352.636 394.473 352.656L394.012 352.678C393.94 352.673 393.766 352.681 393.477 352.695C393.199 352.704 392.945 352.711 392.697 352.714L392.605 352.733L392.242 352.943L392.231 352.973L392.252 352.997L393.976 353.993L394.017 354.005L394.069 353.999L394.452 353.776L394.463 353.746L394.452 353.717L393.419 353.119Z" fill="white"/>
<path d="M397.535 352.866L397.476 352.842L396.871 352.722L396.791 352.735L396.458 352.94L396.447 352.981L396.478 352.987L396.957 353.144L396.968 353.162L396.957 353.167L394.801 354.42L394.789 354.449L394.81 354.473L395.256 354.731L395.296 354.743L395.349 354.736L398.002 353.195L398.022 353.16L398.003 353.135L397.535 352.866Z" fill="white"/>
<path d="M370.763 365.85V365.837L370.785 365.825L370.898 365.83C371.268 365.815 371.544 365.819 371.738 365.812L372.293 365.784C372.539 365.769 372.744 365.744 372.909 365.707C373.084 365.677 373.218 365.622 373.332 365.555C373.477 365.471 373.571 365.38 373.604 365.268C373.658 365.156 373.65 365.042 373.59 364.925C373.52 364.812 373.399 364.695 373.216 364.59C373.053 364.496 372.871 364.426 372.677 364.386C372.494 364.34 372.309 364.329 372.115 364.349C371.929 364.362 371.764 364.411 371.609 364.49L371.423 364.597L371.411 364.628L371.433 364.65L371.879 364.909L371.929 364.926L371.972 364.914L372.075 364.852L372.395 364.773C372.527 364.779 372.639 364.807 372.741 364.866C372.842 364.925 372.892 364.989 372.902 365.066L372.775 365.245C372.64 365.323 372.332 365.372 371.837 365.389L371.367 365.405C371.294 365.411 371.12 365.418 370.842 365.427C370.565 365.435 370.299 365.438 370.053 365.44L369.971 365.465L369.609 365.676L369.587 365.701L369.609 365.724L371.344 366.726L371.383 366.738L371.424 366.726L371.808 366.502L371.83 366.478L371.809 366.453L370.763 365.85Z" fill="white"/>
<path d="M375.379 365.812C375.227 365.725 375.064 365.666 374.879 365.632C374.697 365.587 374.522 365.582 374.338 365.595C374.112 365.61 373.905 365.67 373.719 365.779C373.585 365.856 373.501 365.94 373.458 366.035L373.424 366.232L373.393 366.25L372.982 366.266C372.798 366.315 372.632 366.375 372.497 366.453C372.342 366.544 372.238 366.639 372.185 366.74C372.11 366.866 372.109 366.985 372.178 367.12C372.248 367.245 372.379 367.356 372.551 367.455C372.744 367.566 372.937 367.642 373.152 367.67C373.367 367.709 373.573 367.708 373.778 367.672C373.952 367.641 374.118 367.58 374.274 367.489C374.429 367.4 374.533 367.304 374.587 367.202L374.632 366.953L374.652 366.941L374.982 366.926C375.156 366.907 375.312 366.852 375.446 366.773C375.622 366.671 375.726 366.551 375.76 366.415C375.793 366.314 375.775 366.206 375.704 366.106C375.642 366.001 375.54 365.906 375.379 365.812ZM373.972 366.969L373.776 367.142C373.661 367.208 373.546 367.251 373.435 367.259C373.282 367.278 373.139 367.255 373.017 367.184C372.893 367.113 372.844 367.025 372.897 366.936L373.075 366.75C373.179 366.69 373.293 366.648 373.394 366.634C373.549 366.605 373.703 366.632 373.835 366.709C373.976 366.792 374.015 366.874 373.972 366.969ZM375.02 366.362L374.895 366.469L374.625 366.567C374.472 366.585 374.34 366.556 374.218 366.487C374.095 366.415 374.046 366.34 374.079 366.25L374.235 366.101L374.442 366.028L374.677 366.019L374.891 366.084L375.022 366.219L375.02 366.362Z" fill="white"/>
<path d="M242.199 203.658C240.394 200.878 239.244 197.602 239.253 194.685C239.261 192.101 240.177 190.279 241.654 189.42L234.48 192.349C233.005 193.206 232.087 195.027 232.081 197.614C232.071 200.648 234.029 204.079 236.556 206.936L242.199 203.658Z" fill="#959595" stroke="black" stroke-miterlimit="10" stroke-linejoin="round"/>
<path d="M247.512 185.286C244.096 183.314 240.997 183.133 238.757 184.436L233.673 187.39C235.914 186.089 254.725 201.695 254.7 209.492L259.784 206.539C259.805 198.741 254.303 189.206 247.512 185.286Z" fill="white" stroke="black" stroke-miterlimit="10" stroke-linejoin="round"/>
<path d="M242.43 188.238C235.643 184.32 230.099 187.479 230.078 195.278C230.066 199.498 231.68 204.218 234.23 208.289L237.117 206.611C235.312 203.832 234.163 200.555 234.172 197.64C234.187 192.434 237.887 190.326 242.417 192.941C246.95 195.56 250.629 201.926 250.613 207.13L254.7 209.491C254.723 201.695 249.22 192.159 242.43 188.238Z" fill="white" stroke="black" stroke-miterlimit="10" stroke-linejoin="round"/>
<path d="M210.373 222.165C208.566 219.386 207.417 216.109 207.426 213.192C207.436 210.608 208.35 208.785 209.827 207.927L202.653 210.857C201.178 211.715 200.261 213.536 200.254 216.123C200.244 219.157 202.202 222.588 204.729 225.445L210.373 222.165Z" fill="#959595" stroke="black" stroke-miterlimit="10" stroke-linejoin="round"/>
<path d="M215.687 203.792C212.269 201.82 209.171 201.639 206.93 202.943L201.846 205.896C204.087 204.595 222.898 220.202 222.873 227.999L227.957 225.045C227.978 217.247 222.477 207.712 215.687 203.792Z" fill="white" stroke="black" stroke-miterlimit="10" stroke-linejoin="round"/>
<path d="M210.603 206.744C203.816 202.827 198.273 205.985 198.252 213.784C198.239 218.004 199.854 222.725 202.405 226.795L205.29 225.117C203.485 222.339 202.338 219.061 202.345 216.146C202.36 210.94 206.061 208.833 210.59 211.447C215.123 214.066 218.802 220.432 218.787 225.637L222.873 227.997C222.896 220.201 217.393 210.665 210.603 206.744Z" fill="white" stroke="black" stroke-miterlimit="10" stroke-linejoin="round"/>
<path d="M178.546 240.673C176.742 237.894 175.592 234.617 175.6 231.7C175.609 229.116 176.524 227.292 178.003 226.433L170.828 229.364C169.353 230.22 168.434 232.042 168.429 234.629C168.418 237.663 170.377 241.094 172.904 243.951L178.546 240.673Z" fill="#959595" stroke="black" stroke-miterlimit="10" stroke-linejoin="round"/>
<path d="M183.86 222.301C180.444 220.327 177.344 220.148 175.105 221.452L170.022 224.405C172.263 223.102 191.073 238.71 191.049 246.507L196.132 243.554C196.154 235.756 190.652 226.22 183.86 222.301Z" fill="white" stroke="black" stroke-miterlimit="10" stroke-linejoin="round"/>
<path d="M178.779 225.253C171.99 221.335 166.446 224.494 166.425 232.291C166.413 236.513 168.03 241.234 170.578 245.304L173.465 243.625C171.658 240.847 170.511 237.57 170.52 234.653C170.535 229.448 174.234 227.341 178.764 229.956C183.298 232.575 186.977 238.941 186.96 244.145L191.049 246.506C191.072 238.71 185.567 229.174 178.779 225.253Z" fill="white" stroke="black" stroke-miterlimit="10" stroke-linejoin="round"/>
<path d="M146.721 259.18C144.915 256.402 143.766 253.124 143.774 250.208C143.783 247.623 144.698 245.8 146.176 244.942L139.001 247.871C137.526 248.729 136.609 250.55 136.602 253.137C136.593 256.171 138.55 259.602 141.077 262.459L146.721 259.18Z" fill="#959595" stroke="black" stroke-miterlimit="10" stroke-linejoin="round"/>
<path d="M152.034 240.807C148.617 238.835 145.518 238.654 143.278 239.958L138.195 242.911C140.436 241.609 159.246 257.217 159.222 265.014L164.305 262.06C164.327 254.262 158.826 244.727 152.034 240.807Z" fill="white" stroke="black" stroke-miterlimit="10" stroke-linejoin="round"/>
<path d="M146.952 243.759C140.165 239.842 134.62 243.001 134.6 250.799C134.587 255.02 136.203 259.74 138.752 263.81L141.638 262.132C139.832 259.354 138.685 256.076 138.693 253.161C138.708 247.955 142.408 245.848 146.938 248.463C151.472 251.081 155.15 257.448 155.134 262.652L159.222 265.013C159.245 257.217 153.742 247.681 146.952 243.759Z" fill="white" stroke="black" stroke-miterlimit="10" stroke-linejoin="round"/>
<path d="M184.031 129.642C184.767 126.635 186.227 123.853 188.284 121.538C190.341 119.224 192.932 117.447 195.832 116.363C198.733 115.278 201.854 114.919 204.925 115.316C207.995 115.714 210.922 116.856 213.451 118.642L214.231 119.212C230.961 131.752 221.031 154.752 214.231 155.272C207.431 155.792 194.351 156.352 194.351 156.352C194.351 156.352 178.941 149.992 184.031 129.642Z" fill="#959595"/>
<path d="M334.971 114.012V118.192C334.971 118.192 266.971 122.892 259.711 122.892H246.121C246.121 122.892 245.921 123.102 245.591 123.482C245.031 124.112 244.081 125.222 243.031 126.602C240.891 129.382 238.341 133.262 237.751 136.482C236.751 142.232 233.051 144.322 233.051 144.322L219.461 140.672L206.351 124.992L204.441 123.152L199.001 117.962L194.351 113.512L194.581 111.012V110.632C195.693 105.261 197.115 99.9589 198.841 94.7524C198.841 94.6124 198.931 94.4624 198.981 94.3224C202.751 83.0024 209.041 69.2524 218.101 65.1624C218.791 64.8524 219.511 64.5524 220.281 64.2824L221.201 63.9624C238.581 58.1424 271.421 60.4524 271.421 60.4524C271.421 60.4524 296.501 67.7724 298.601 70.9124C300.701 74.0524 324.471 99.9124 324.471 99.9124C326.557 101.486 328.48 103.265 330.211 105.222C332.441 107.692 334.511 110.802 334.971 114.012Z" fill="#757575"/>
<path opacity="0.1" d="M192.281 148.512C196.324 148.512 199.601 143.364 199.601 137.012C199.601 130.661 196.324 125.512 192.281 125.512C188.238 125.512 184.961 130.661 184.961 137.012C184.961 143.364 188.238 148.512 192.281 148.512Z" fill="white"/>
<path opacity="0.1" d="M222.601 69.0624C222.601 69.0624 216.601 78.2624 210.261 90.0624C210.258 90.0923 210.258 90.1225 210.261 90.1524C208.571 93.2924 206.851 96.6024 205.211 99.9924L205.141 100.152C205.141 100.152 201.671 97.4024 198.941 94.7224C198.941 94.5824 199.031 94.4324 199.081 94.2924C202.851 82.9724 209.141 69.2224 218.201 65.1324C218.891 64.8224 219.611 64.5224 220.381 64.2524L222.601 69.0624Z" fill="black"/>
<path opacity="0.1" d="M204.831 99.9024C204.831 99.9024 241.941 110.902 249.251 106.172C249.251 106.172 251.871 72.7224 234.621 70.6324C234.621 70.6324 224.691 68.0124 222.621 69.6324C220.551 71.2524 204.831 99.9024 204.831 99.9024Z" fill="white"/>
<path opacity="0.1" d="M252.911 75.3324C252.911 75.3324 260.231 103.032 265.461 103.562C270.691 104.092 323.461 103.032 321.381 99.3724C319.301 95.7124 296.291 72.2024 296.291 72.2024L252.911 75.3324Z" fill="white"/>
<path d="M243.931 125.452C243.931 125.452 253.431 112.962 270.161 125.512C286.891 138.062 276.951 161.052 270.161 161.572C263.371 162.092 250.351 162.622 250.351 162.622C250.351 162.622 229.721 154.142 243.931 125.452Z" fill="#959595"/>
<path d="M342.601 128.632C341.905 126.659 340.807 124.85 339.377 123.322C337.946 121.794 336.215 120.579 334.291 119.754C332.368 118.929 330.294 118.512 328.201 118.529C326.108 118.546 324.041 118.996 322.131 119.852C320.263 120.733 318.493 121.809 316.851 123.062C301.961 134.222 310.851 154.692 316.851 155.162C319.021 155.322 321.911 155.492 324.721 155.642C327.598 155.795 330.471 155.278 333.114 154.132C335.758 152.987 338.099 151.243 339.954 149.039C341.809 146.835 343.128 144.23 343.806 141.43C344.484 138.63 344.503 135.711 343.861 132.902C343.522 131.456 343.102 130.031 342.601 128.632Z" fill="#959595"/>
<path opacity="0.1" d="M248.211 154.782C252.254 154.782 255.531 149.634 255.531 143.282C255.531 136.931 252.254 131.782 248.211 131.782C244.168 131.782 240.891 136.931 240.891 143.282C240.891 149.634 244.168 154.782 248.211 154.782Z" fill="white"/>
<path opacity="0.1" d="M268.591 121.332C268.591 121.332 267.591 106.172 283.751 112.442C299.911 118.712 289.501 125.512 289.501 125.512L268.591 121.332Z" fill="white"/>
<path opacity="0.1" d="M334.971 114.012V116.102L332.361 117.102L327.031 116.102C327.031 116.102 325.891 107.542 330.261 105.102C332.441 107.692 334.511 110.802 334.971 114.012Z" fill="white"/>
<path opacity="0.1" d="M334.971 114.112V118.192C334.971 118.192 266.971 122.892 259.711 122.892H259.651C255.891 120.892 252.131 120.002 248.971 121.332C248.009 121.73 247.104 122.255 246.281 122.892C246.041 123.082 245.811 123.282 245.591 123.482C244.594 124.396 243.732 125.446 243.031 126.602C238.351 134.172 239.351 145.892 239.351 145.892C225.761 150.072 211.651 139.102 211.651 139.102C209.091 131.422 206.701 126.412 204.511 123.102C202.511 120.102 200.691 118.632 199.071 117.912L194.351 113.512L194.581 111.012L232.511 138.592C232.511 138.592 236.171 115.072 244.511 116.642C252.851 118.212 269.601 118.212 269.601 118.212L334.971 114.112Z" fill="black"/>
<path d="M192.281 110.872C192.281 110.872 189.141 118.712 192.281 119.242C195.421 119.772 202.471 113.242 211.621 140.672C211.621 140.672 225.731 151.672 239.321 147.462C239.321 147.462 237.701 127.602 248.971 122.892C260.241 118.182 279.041 141.712 279.041 141.712V146.942L323.471 142.232C323.471 142.232 337.061 131.782 336.541 115.582L269.641 119.762C269.641 119.762 252.911 119.762 244.551 118.192C236.191 116.622 232.551 140.192 232.551 140.192L192.281 110.872Z" fill="#757575"/>
<path d="M445.828 57.5476C425.923 46.4573 407.987 45.5958 394.963 53.1633C388.679 56.8144 352.754 77.3724 346.47 81.0248C346.573 80.9649 346.678 80.9099 346.779 80.8525C333.138 88.5947 324.797 105.489 325.091 129.51L325.102 130.292L396.862 253.816C397.091 253.948 397.315 254.081 397.543 254.214C398.167 254.578 398.791 254.936 399.417 255.286C419.486 266.468 437.553 267.246 450.602 259.475C450.494 259.539 450.389 259.607 450.281 259.67C456.567 256.019 492.492 235.46 498.775 231.809C512.236 223.988 520.445 207.161 520.154 183.322C519.577 136.413 486.302 80.101 445.828 57.5476Z" fill="#959595" stroke="black" stroke-miterlimit="10" stroke-linejoin="round"/>
<path d="M459.88 204.621L396.81 98.6537C362.461 79.5132 335.009 96.2722 335.496 136.084C335.983 175.898 364.226 223.689 398.577 242.831C432.926 261.972 460.379 245.213 459.891 205.4L459.88 204.621Z" fill="#959595" stroke="black" stroke-miterlimit="10" stroke-linejoin="round"/>
<path d="M464.255 202.079C464.735 241.449 437.591 258.021 403.62 239.091C369.654 220.165 341.726 172.903 341.245 133.533C340.761 94.1618 367.908 77.5899 401.877 96.519C435.843 115.448 463.773 162.708 464.255 202.079Z" fill="white" stroke="black" stroke-miterlimit="10" stroke-linejoin="round"/>
<path d="M401.036 171.774L401.126 179.395C401.141 180.532 401.951 181.896 402.931 182.441C403.91 182.986 404.691 182.509 404.679 181.374L404.586 173.756C404.042 173.714 403.446 173.526 402.819 173.175C402.186 172.824 401.585 172.343 401.036 171.774ZM402.098 114.356C401.117 113.811 400.33 114.285 400.343 115.426L400.914 161.855C401.456 161.897 402.056 162.085 402.684 162.435C403.315 162.787 403.914 163.268 404.462 163.835L403.894 117.404C403.878 116.263 403.075 114.901 402.098 114.356Z" fill="#B24CC2"/>
<path d="M402.735 166.52C402.116 166.177 401.63 166.474 401.64 167.19C401.647 167.899 402.149 168.749 402.766 169.094C403.379 169.433 403.873 169.139 403.864 168.43C403.855 167.714 403.346 166.861 402.735 166.52ZM399.186 162.357C398.505 162.911 398.104 163.897 398.121 165.229C398.125 165.593 398.162 165.968 398.224 166.346L392.691 166.823C391.977 166.886 391.728 167.788 392.14 168.851C392.418 169.569 392.927 170.17 393.453 170.464C393.692 170.597 393.943 170.663 394.171 170.648L399.766 170.164C400.143 170.748 400.57 171.292 401.036 171.774C401.585 172.343 402.186 172.823 402.818 173.175C403.446 173.525 404.041 173.714 404.585 173.755C404.845 173.775 405.095 173.759 405.326 173.714L403.84 170.966C403.519 170.963 403.162 170.875 402.786 170.666C401.425 169.905 400.308 168.009 400.286 166.436C400.278 165.856 400.423 165.408 400.666 165.097L399.186 162.357ZM427.127 164.112C426.884 163.976 426.638 163.907 426.412 163.925L405.886 165.689C405.472 165.015 404.99 164.384 404.462 163.835C403.914 163.266 403.314 162.787 402.684 162.435C402.055 162.085 401.456 161.898 400.914 161.855C400.606 161.832 400.317 161.856 400.05 161.925L401.53 164.658C401.882 164.629 402.28 164.709 402.716 164.953C404.073 165.709 405.196 167.603 405.216 169.182C405.223 169.817 405.044 170.3 404.742 170.603L406.217 173.329C406.954 172.794 407.399 171.78 407.379 170.389C407.377 170.098 407.349 169.806 407.306 169.513L427.889 167.75C428.604 167.687 428.851 166.786 428.44 165.722C428.163 165.004 427.65 164.403 427.127 164.112Z" fill="#B24CC2"/>
<path d="M403.518 110.381L403.437 103.755C403.425 102.813 402.749 101.677 401.935 101.222C401.117 100.766 400.465 101.162 400.477 102.107L400.558 108.732C400.57 109.683 401.239 110.816 402.059 111.273C402.874 111.726 403.53 111.331 403.518 110.381Z" fill="#B24CC2"/>
<path d="M428.547 132.932L431.337 128.786C431.734 128.195 431.485 127.011 430.768 126.149C430.535 125.863 430.28 125.645 430.027 125.507C429.517 125.224 429.023 125.253 428.755 125.645L425.967 129.795C425.571 130.384 425.825 131.567 426.538 132.436C426.773 132.721 427.028 132.937 427.277 133.076C427.79 133.363 428.283 133.331 428.547 132.932Z" fill="#B24CC2"/>
<path d="M445.94 164.65C446.19 164.789 446.442 164.857 446.673 164.829L451.583 164.274C452.284 164.195 452.513 163.285 452.097 162.239C451.814 161.536 451.313 160.948 450.802 160.664C450.551 160.524 450.298 160.456 450.066 160.483L445.159 161.038C444.456 161.118 444.228 162.035 444.642 163.072C444.925 163.777 445.426 164.365 445.94 164.65Z" fill="#B24CC2"/>
<path d="M458.701 197.283L452.984 194.097C452.163 193.64 451.513 194.036 451.525 194.987C451.539 195.93 452.206 197.07 453.026 197.527L458.741 200.712C459.555 201.165 460.211 200.765 460.2 199.821C460.189 198.871 459.515 197.737 458.701 197.283Z" fill="#B24CC2"/>
<path d="M447.35 220.109C447.116 219.826 446.861 219.61 446.61 219.471C446.1 219.185 445.605 219.214 445.336 219.611C444.938 220.203 445.194 221.389 445.907 222.259L450.897 228.323C451.133 228.608 451.39 228.827 451.641 228.969C452.155 229.252 452.645 229.223 452.912 228.827C453.307 228.232 453.055 227.049 452.34 226.18L447.35 220.109Z" fill="#B24CC2"/>
<path d="M429.763 232.107C429.482 231.403 428.982 230.82 428.472 230.537C428.221 230.397 427.97 230.33 427.738 230.353C427.035 230.435 426.804 231.347 427.223 232.395L430.151 239.724C430.434 240.429 430.936 241.014 431.447 241.297C431.697 241.439 431.95 241.506 432.182 241.482C432.879 241.399 433.111 240.487 432.691 239.435L429.763 232.107Z" fill="#B24CC2"/>
<path d="M403.443 224.34C402.625 223.884 401.973 224.28 401.985 225.231L402.066 231.858C402.076 232.806 402.747 233.94 403.567 234.397C404.381 234.85 405.031 234.453 405.018 233.502L404.939 226.877C404.928 225.926 404.257 224.792 403.443 224.34Z" fill="#B24CC2"/>
<path d="M378.219 202.531C377.707 202.248 377.214 202.278 376.949 202.678L374.162 206.821C373.762 207.413 374.02 208.6 374.734 209.467C374.966 209.75 375.221 209.965 375.469 210.105C375.98 210.387 376.474 210.36 376.741 209.963L379.53 205.818C379.931 205.227 379.669 204.04 378.957 203.173C378.725 202.885 378.469 202.67 378.219 202.531Z" fill="#B24CC2"/>
<path d="M359.558 170.96C359.308 170.819 359.054 170.751 358.823 170.778L353.913 171.334C353.212 171.414 352.984 172.328 353.402 173.377C353.681 174.078 354.181 174.658 354.692 174.943C354.942 175.084 355.198 175.151 355.43 175.124L360.34 174.57C361.04 174.489 361.272 173.582 360.854 172.534C360.572 171.83 360.07 171.244 359.558 170.96Z" fill="#B24CC2"/>
<path d="M353.973 140.626C353.96 139.678 353.291 138.545 352.471 138.088L346.757 134.903C345.941 134.451 345.285 134.844 345.302 135.796C345.309 136.737 345.982 137.872 346.799 138.327L352.514 141.512C353.333 141.968 353.982 141.57 353.973 140.626Z" fill="#B24CC2"/>
<path d="M358.152 115.503C358.386 115.789 358.64 116.005 358.892 116.143C359.402 116.427 359.892 116.395 360.161 115.998C360.562 115.407 360.303 114.22 359.589 113.357L354.6 107.286C354.365 107.001 354.111 106.786 353.861 106.645C353.35 106.361 352.856 106.394 352.591 106.792C352.19 107.378 352.449 108.564 353.156 109.429L358.152 115.503Z" fill="#B24CC2"/>
<path d="M377.029 105.076C377.278 105.216 377.53 105.283 377.759 105.253C378.462 105.174 378.693 104.26 378.274 103.219L375.346 95.8836C375.067 95.1834 374.57 94.6006 374.059 94.3171C373.809 94.1765 373.553 94.1093 373.322 94.1362C372.62 94.2107 372.387 95.1235 372.805 96.172L375.734 103.501C376.015 104.205 376.518 104.792 377.029 105.076Z" fill="#B24CC2"/>
<path d="M402.766 169.093C402.149 168.749 401.647 167.899 401.64 167.189C401.63 166.473 402.117 166.176 402.735 166.519C403.346 166.86 403.855 167.713 403.864 168.429C403.873 169.138 403.379 169.432 402.766 169.093ZM395.547 153.937C395.409 153.86 395.269 153.839 395.161 153.892C394.919 154.003 394.895 154.421 395.118 154.831L399.187 162.358L400.667 165.098C400.425 165.41 400.28 165.857 400.287 166.437C400.309 168.01 401.426 169.906 402.787 170.668C403.165 170.877 403.522 170.965 403.842 170.967L405.328 173.715L432.085 223.216C432.204 223.432 432.37 223.606 432.528 223.695C432.667 223.772 432.81 223.798 432.92 223.741C433.162 223.631 433.179 223.206 432.962 222.803L406.216 173.331L404.741 170.605C405.043 170.302 405.221 169.82 405.215 169.184C405.194 167.605 404.071 165.711 402.715 164.955C402.279 164.712 401.88 164.63 401.528 164.661L400.049 161.927L395.994 154.422C395.875 154.198 395.71 154.028 395.547 153.937Z" fill="#FB2143"/>
<path d="M470.285 211.195C470.855 257.663 438.815 277.22 398.724 254.879C358.633 232.541 325.672 176.759 325.102 130.292C324.534 83.8267 356.572 64.2671 396.664 86.6066C436.754 108.947 469.716 164.728 470.285 211.195ZM459.891 205.401C459.404 165.589 431.161 117.798 396.81 98.6549C362.461 79.5144 335.009 96.2734 335.496 136.085C335.983 175.899 364.226 223.69 398.577 242.832C432.926 261.974 460.379 245.215 459.891 205.401Z" fill="#959595" stroke="black" stroke-miterlimit="10" stroke-linejoin="round"/>
<path d="M381.241 316.39L395.948 291.108L417.831 274.335L437.416 299.884L411.444 319.791L387.522 324.938C386.926 323.167 386.049 321.459 384.848 319.894C383.797 318.52 382.573 317.356 381.241 316.39Z" fill="#E6C0A3" stroke="black" stroke-miterlimit="10" stroke-linejoin="round"/>
<path d="M381.241 316.39C382.573 317.356 383.797 318.52 384.849 319.894C386.049 321.459 386.926 323.167 387.523 324.938L374.658 327.707L381.241 316.39Z" fill="#959595" stroke="black" stroke-miterlimit="10" stroke-linejoin="round"/>
<path d="M483.919 223.607C476.851 229.024 475.513 239.149 480.93 246.217C486.349 253.283 496.473 254.622 503.541 249.204L525.223 232.586C532.29 227.169 533.629 217.044 528.211 209.976C522.794 202.91 512.668 201.571 505.601 206.989L483.919 223.607Z" fill="#FB8395" stroke="black" stroke-miterlimit="10" stroke-linejoin="round"/>
<path d="M395.949 291.107L493.026 216.701L488.216 225.766L393.945 298.02C398.587 293.629 399.574 289.813 395.949 291.107Z" fill="white" stroke="black" stroke-miterlimit="10" stroke-linejoin="round"/>
<path d="M393.946 298.021L488.217 225.767L496.023 240.062L401.792 312.285C403.727 307.779 401.916 299.866 393.946 298.021Z" fill="#959595" stroke="black" stroke-miterlimit="10" stroke-linejoin="round"/>
<path d="M401.791 312.285L496.022 240.062L508.64 245.295L411.562 319.702C413.707 316.618 408.841 310.353 401.791 312.285Z" fill="white" stroke="black" stroke-miterlimit="10" stroke-linejoin="round"/>
<path d="M501.825 209.958L493.026 216.702L488.216 225.767L497.014 219.024L501.825 209.958Z" fill="#959595" fill-opacity="0.8" stroke="black" stroke-miterlimit="10" stroke-linejoin="round"/>
<path d="M497.014 219.024L488.216 225.767L496.022 240.062L504.82 233.318L497.014 219.024Z" fill="#959595" fill-opacity="0.8" stroke="black" stroke-miterlimit="10" stroke-linejoin="round"/>
<path d="M504.82 233.318L496.022 240.062L508.64 245.295L517.439 238.553L504.82 233.318Z" fill="#959595" fill-opacity="0.8" stroke="black" stroke-miterlimit="10" stroke-linejoin="round"/>
<path d="M174.363 169.147L50.3275 169.518C50.3397 173.738 50.3519 177.957 50.3629 182.176C50.3886 190.845 55.7972 199.522 66.7243 206.385C89.9044 220.948 129.137 221.829 154.353 208.356C167.682 201.232 174.428 191.525 174.4 181.805C174.387 177.587 174.375 173.366 174.363 169.147Z" fill="#959595" stroke="black" stroke-miterlimit="10" stroke-linejoin="round"/>
<path d="M154.317 195.698C129.101 209.171 89.869 208.29 66.6888 193.73C43.5087 179.168 45.1596 156.441 70.3756 142.968C95.5916 129.495 134.824 130.376 158.004 144.938C181.183 159.498 179.532 182.225 154.317 195.698Z" fill="#959595" stroke="black" stroke-miterlimit="10" stroke-linejoin="round"/>
<path d="M162.503 158.848C162.343 157.629 161.922 156.038 161.617 154.845C161.104 152.829 160.077 150.238 159.297 148.308C158.863 147.238 158.107 145.893 157.582 144.867C157.562 144.828 155.429 140.792 151.862 136.735C148.889 133.356 146.338 131.235 144.021 129.447C142.796 128.502 141.096 127.327 139.778 126.517C138.137 125.507 135.892 124.254 134.171 123.389C129.966 121.273 125.309 119.762 123.779 119.266C122.334 118.797 121.537 118.539 120.621 118.035C119.338 117.33 118.701 116.78 117.735 115.947C119.367 117.456 118.962 119.474 116.614 120.728C113.962 122.146 109.836 122.052 107.399 120.522C105.374 119.249 105.15 117.384 106.656 115.976C105.452 117.092 104.511 117.676 103.674 118.14C102.84 118.602 101.891 118.915 100.576 119.35C94.6592 121.303 91.5798 122.818 88.6946 124.326C88.6592 124.344 84.8356 126.413 82.3867 128.198C81.0339 129.186 79.2693 130.559 77.9826 131.631C77.1638 132.312 76.1581 133.316 75.376 134.039C74.0722 135.246 72.5129 137.049 71.4143 138.447C70.2412 139.94 68.8322 142.05 67.8143 143.655C67.7862 143.702 64.785 148.475 63.084 154.801C62.4424 157.195 61.9695 160.478 61.6518 162.936C61.4856 164.219 61.5271 165.951 61.4746 167.244C61.4954 174.353 65.9312 181.471 74.8921 187.101C93.9052 199.045 126.083 199.769 146.764 188.716C157.697 182.875 163.229 174.912 163.206 166.94C163.102 164.506 162.821 161.264 162.503 158.848Z" fill="white" stroke="black" stroke-miterlimit="10" stroke-linejoin="round"/>
<path d="M146.484 90.4353C125.802 101.487 93.6242 100.763 74.6135 88.8199C66.2697 83.5778 61.8534 77.0465 61.2668 70.4321C61.3842 72.6084 61.5748 75.1097 61.8974 77.0587C62.2457 79.169 62.9202 81.9599 63.6717 83.9615C64.488 86.1377 65.6502 89.0337 66.8208 91.0426C67.7667 92.6678 69.1414 94.7695 70.2229 96.3092C70.8595 97.2134 71.8054 98.3511 72.5398 99.1759C75.1915 102.15 83.258 111.199 100.587 116.635C101.65 116.969 102.749 117.313 103.834 117.908C105.057 118.578 105.731 119.16 106.663 119.965C106.874 120.16 107.118 120.346 107.397 120.522C109.835 122.053 113.961 122.146 116.612 120.728C117.809 119.537 119.204 118.585 120.726 117.771C121.617 117.324 121.801 117.231 123.825 116.56C126.294 115.743 128.27 115.011 130.233 114.19C131.908 113.488 134.077 112.405 135.701 111.587C137.46 110.635 139.265 109.622 142.009 107.715C146.537 104.568 149.869 101.081 150.613 100.226C152.057 98.5698 153.92 96.3031 155.165 94.4934C156.259 92.9 157.474 90.6186 158.387 88.9152C159.375 87.0713 160.927 82.8409 161.316 81.1058C161.857 78.6863 162.431 75.4274 162.749 72.9689C162.915 71.6858 162.872 69.9519 162.926 68.6591C162.949 76.631 157.417 84.5944 146.484 90.4353Z" fill="white" stroke="black" stroke-miterlimit="10" stroke-linejoin="round"/>
<path d="M61.2668 70.4321C61.2387 69.9226 61.2143 69.4252 61.1935 68.9633C61.196 69.4533 61.2228 69.9433 61.2668 70.4321Z" fill="white" stroke="black" stroke-miterlimit="10" stroke-linejoin="round"/>
<path d="M174.035 53.7355L50 54.107C50.0122 58.3239 50.0244 62.5396 50.0354 66.7565C50.0611 75.425 55.4697 84.1032 66.3968 90.9669C89.5769 105.529 128.809 106.41 154.025 92.9366C167.355 85.8139 174.1 76.1068 174.071 66.3851C174.06 62.1681 174.048 57.9512 174.035 53.7355Z" fill="#959595" stroke="black" stroke-miterlimit="10" stroke-linejoin="round"/>
<path d="M153.99 80.2871C128.774 93.7602 89.5414 92.8792 66.3613 78.3173C43.1812 63.7566 44.8308 41.0285 70.0468 27.5554C95.2628 14.0823 134.495 14.9633 157.676 29.5252C180.855 44.0858 179.206 66.8127 153.99 80.2871Z" fill="#959595" stroke="black" stroke-miterlimit="10" stroke-linejoin="round"/>
<path d="M153.547 169.987C151.598 169.987 149.975 168.453 149.887 166.487C149.8 164.517 149.569 161.894 149.316 159.961C149.253 159.49 148.942 158.273 148.793 157.687L148.712 157.373C148.36 155.989 147.384 153.573 146.966 152.541C146.851 152.259 146.455 151.507 146.219 151.058L145.762 150.186L145.763 150.187C145.763 150.187 144.656 148.15 142.848 145.849C141.596 144.257 141.872 141.952 143.465 140.701C145.054 139.451 147.362 139.727 148.612 141.318C150.908 144.24 152.259 146.789 152.273 146.813L152.681 147.594C153.161 148.504 153.525 149.208 153.759 149.781C154.316 151.16 155.345 153.703 155.815 155.556L155.894 155.864C156.209 157.092 156.477 158.171 156.585 159.011C156.866 161.163 157.113 163.968 157.212 166.159C157.303 168.181 155.737 169.895 153.715 169.986C153.657 169.986 153.602 169.987 153.547 169.987Z" fill="white" stroke="black" stroke-miterlimit="10" stroke-linejoin="round"/>
<path d="M138.714 140.306C137.917 140.306 137.113 140.047 136.441 139.515L135.827 139.034C134.225 137.794 133.933 135.492 135.175 133.891C136.414 132.289 138.718 132 140.317 133.239L140.993 133.768C142.58 135.025 142.849 137.33 141.59 138.917C140.867 139.831 139.795 140.306 138.714 140.306Z" fill="white" stroke="black" stroke-miterlimit="10" stroke-linejoin="round"/>
<path d="M72.42 160.153C72.1048 160.153 71.7834 160.112 71.4656 160.026C69.5092 159.499 68.352 157.488 68.8787 155.533C70.2864 150.297 72.7231 146.256 72.9968 145.812C74.165 143.972 75.3516 142.257 76.1972 141.18C77.3532 139.71 78.6693 138.244 79.6335 137.351C81.1182 135.975 83.4388 136.064 84.8135 137.548C86.1907 139.033 86.1015 141.352 84.6168 142.73C84.0498 143.255 83.0099 144.382 81.9614 145.712C81.2698 146.592 80.2164 148.121 79.2143 149.701C79.1532 149.798 77.1174 153.133 75.9577 157.439C75.5166 159.074 74.0367 160.153 72.42 160.153Z" fill="white" stroke="black" stroke-miterlimit="10" stroke-linejoin="round"/>
</g>
<defs>
<clipPath id="clip0_24_486">
<rect width="611" height="434" fill="white"/>
</clipPath>
</defs>
</svg>
