<svg width="22" height="23" viewBox="0 0 22 23" fill="none" xmlns="http://www.w3.org/2000/svg">
<g clip-path="url(#clip0_251_10)">
<path d="M17.6299 10.0581L18.1155 9.57254L16.6588 8.1159L13.9905 5.44754L12.5338 3.9909L12.0483 4.47645L11.0772 5.44754L2.51783 14.0069C2.07096 14.4538 1.7444 15.0081 1.56393 15.6139L0.0428336 20.7874C-0.0645883 21.1483 0.0342398 21.5393 0.304943 21.8057C0.575646 22.0721 0.962365 22.171 1.3233 22.0679L6.49244 20.5468C7.0983 20.3663 7.6526 20.0397 8.09947 19.5929L16.6588 11.0335L17.6299 10.0581ZM6.87486 17.294L6.48385 18.2694C6.31197 18.4026 6.11861 18.5014 5.91236 18.5659L2.55221 19.5542L3.54049 16.1983C3.60065 15.9878 3.70377 15.7944 3.83697 15.6268L4.81237 15.2358V16.6108C4.81237 16.9889 5.12174 17.2983 5.49987 17.2983H6.87486V17.294ZM15.5846 0.935822L14.9659 1.55887L13.9948 2.52996L13.5049 3.01551L14.9616 4.47215L17.6299 7.14051L19.0866 8.59715L19.5721 8.1116L20.5432 7.14051L21.1663 6.51746C22.2405 5.44324 22.2405 3.70301 21.1663 2.62879L19.4776 0.935822C18.4034 -0.138397 16.6631 -0.138397 15.5889 0.935822H15.5846ZM13.5479 8.15457L7.36041 14.3421C7.09401 14.6085 6.65572 14.6085 6.38932 14.3421C6.12291 14.0757 6.12291 13.6374 6.38932 13.371L12.5768 7.18348C12.8432 6.91707 13.2815 6.91707 13.5479 7.18348C13.8143 7.44988 13.8143 7.88817 13.5479 8.15457Z" fill="#D29863"/>
</g>
<defs>
<clipPath id="clip0_251_10">
<rect width="22" height="22" fill="white" transform="translate(0 0.132294)"/>
</clipPath>
</defs>
</svg>
