<svg width="23" height="23" viewBox="0 0 23 23" fill="none" xmlns="http://www.w3.org/2000/svg">
<g clip-path="url(#clip0_69_2285)">
<path d="M6.66272 1.26055L6.30915 1.875H1.59487C0.72567 1.875 0.0234375 2.48945 0.0234375 3.25C0.0234375 4.01055 0.72567 4.625 1.59487 4.625H20.452C21.3212 4.625 22.0234 4.01055 22.0234 3.25C22.0234 2.48945 21.3212 1.875 20.452 1.875H15.7377L15.3842 1.26055C15.119 0.792188 14.5739 0.5 13.9797 0.5H8.06719C7.47299 0.5 6.9279 0.792188 6.66272 1.26055ZM20.452 6H1.59487L2.63594 20.5664C2.71451 21.6535 3.74576 22.5 4.98817 22.5H17.0587C18.3011 22.5 19.3324 21.6535 19.4109 20.5664L20.452 6Z" fill="#D690E0"/>
</g>
<defs>
<clipPath id="clip0_69_2285">
<rect width="22" height="22" fill="white" transform="translate(0.0234375 0.5)"/>
</clipPath>
</defs>
</svg>
