<svg width="166" height="506" viewBox="0 0 166 506" fill="none" xmlns="http://www.w3.org/2000/svg">
<g clip-path="url(#clip0_32_711)">
<path d="M78.239 490.433H63.0664L55.8489 431.93H78.2414L78.239 490.433Z" fill="#FFB8B8"/>
<path d="M52.2289 486.098H81.4899V504.516H33.8054C33.8054 499.631 35.7464 494.947 39.2015 491.493C42.6566 488.039 47.3427 486.098 52.2289 486.098Z" fill="#2F2E41"/>
<path d="M153.731 490.433H138.558L131.341 431.93H153.733L153.731 490.433Z" fill="#FFB8B8"/>
<path d="M127.721 486.098H156.982V504.516H109.297C109.297 499.631 111.238 494.947 114.693 491.493C118.148 488.039 122.834 486.098 127.721 486.098Z" fill="#2F2E41"/>
<path d="M2.12719 281.212C1.03567 279.604 0.309972 277.777 0.00132796 275.858C-0.307316 273.94 -0.191415 271.977 0.340783 270.109C0.872982 268.24 1.80857 266.511 3.08165 265.042C4.35474 263.574 5.93436 262.403 7.70924 261.611L59.2859 119.502L84.6648 133.348L25.7755 269.152C26.9085 272.221 26.8761 275.599 25.6844 278.645C24.4926 281.692 22.2244 284.196 19.3095 285.682C16.3945 287.169 13.0354 287.535 9.86857 286.711C6.70176 285.887 3.94733 283.93 2.12719 281.212Z" fill="#FFB8B8"/>
<path d="M145.981 307.914C144.295 306.948 142.841 305.624 141.722 304.035C140.603 302.446 139.847 300.632 139.505 298.719C139.164 296.806 139.246 294.842 139.746 292.964C140.247 291.087 141.153 289.342 142.4 287.852L126.422 137.525L155.305 138.844L161.945 286.71C164.309 288.972 165.762 292.022 166.027 295.282C166.292 298.543 165.352 301.787 163.384 304.401C161.416 307.015 158.558 308.816 155.35 309.463C152.143 310.111 148.809 309.56 145.981 307.914Z" fill="#FFB8B8"/>
<path d="M99.9054 93.1799C116.693 93.1799 130.301 79.5757 130.301 62.7939C130.301 46.0122 116.693 32.4079 99.9054 32.4079C83.1181 32.4079 69.5094 46.0122 69.5094 62.7939C69.5094 79.5757 83.1181 93.1799 99.9054 93.1799Z" fill="#FFB8B8"/>
<path d="M145.787 273.726H54.1486L54.2588 273.013C54.4235 271.947 70.5908 166.074 58.6668 131.437C57.4702 128.033 57.5755 124.307 58.9622 120.976C60.3489 117.645 62.9191 114.945 66.178 113.395C83.2215 105.371 115.938 95.4913 143.551 119.468C147.615 123.054 150.788 127.536 152.819 132.56C154.851 137.584 155.686 143.011 155.258 148.413L145.787 273.726Z" fill="#CCCCCC"/>
<path d="M71.7489 181.72L30.4924 173.353L49.831 127.541C50.9881 123.103 53.8586 119.306 57.8128 116.982C61.7669 114.657 66.4818 113.996 70.9233 115.142C75.3647 116.288 79.1701 119.149 81.5046 123.096C83.8391 127.043 84.5122 131.755 83.3762 136.198L71.7489 181.72Z" fill="#CCCCCC"/>
<path d="M124.588 197.256L122.108 140.419C120.227 129.734 126.345 119.634 135.755 117.983C145.167 116.338 154.358 123.748 156.247 134.511L165.57 187.62L124.588 197.256Z" fill="#CCCCCC"/>
<path d="M142.738 266.921C157.483 323.06 159.092 394.435 155.114 472.29L135.313 469.816L99.423 321.356L79.6219 472.29L57.3457 471.053C50.6907 389.364 44.211 319.234 54.8705 273.107L142.738 266.921Z" fill="#2F2E41"/>
<path d="M119.933 86.277C114.263 92.3153 103.732 89.0738 102.993 80.8246C102.935 80.1842 102.939 79.5396 103.006 78.9C103.387 75.2459 105.499 71.9286 104.993 68.0703C104.878 67.1101 104.521 66.195 103.953 65.4118C99.4345 59.3629 88.8273 68.1173 84.5627 62.6414C81.9477 59.2837 85.0216 53.9972 83.0149 50.2444C80.3664 45.2913 72.5218 47.7347 67.6024 45.0221C62.129 42.0041 62.4564 33.609 66.0594 28.5027C70.4534 22.2753 78.1575 18.9524 85.7656 18.4735C93.3737 17.9946 100.929 20.0505 108.032 22.8177C116.103 25.9618 124.105 30.3069 129.072 37.4008C135.111 46.0277 135.693 57.6259 132.672 67.7135C130.835 73.8499 124.564 81.3461 119.933 86.277Z" fill="#2F2E41"/>
</g>
<defs>
<clipPath id="clip0_32_711">
<rect width="166" height="506" fill="white"/>
</clipPath>
</defs>
</svg>
