<svg width="199" height="410" viewBox="0 0 199 410" fill="none" xmlns="http://www.w3.org/2000/svg">
<g clip-path="url(#clip0_32_571)">
<path d="M147.654 204.148C149.37 211.025 147.075 217.478 142.529 218.561C137.983 219.644 132.909 214.947 131.194 208.067C130.47 205.328 130.437 202.457 131.099 199.694L124.213 170.463L138.527 167.542L143.796 196.669C145.685 198.825 147.008 201.389 147.654 204.148Z" fill="#FDADB0"/>
<path d="M87.642 371.293L88.5239 390.451L87.6407 395.753L90.7319 401.938L115.019 404.588L116.344 393.102L103.538 386.475L103.166 375.65L87.642 371.293Z" fill="#FDADB0"/>
<path d="M113.253 400.17L111.928 401.938L86.4933 394.605C86.4933 394.605 87.6407 405.914 87.6407 408.123C87.6407 410.332 129.592 410.332 135.904 409.448C142.217 408.564 140.19 402.821 140.19 402.821L114.011 390.424L113.253 400.17Z" fill="#2F2E43"/>
<path d="M24.3649 357.19L19.0719 375.623L16.5393 380.363L17.4894 387.212L39.6516 397.5L44.581 387.042L34.5682 376.663L40.8492 360.369L24.3649 357.19Z" fill="#FDADB0"/>
<path d="M39.3913 392.749L37.5709 393.999L15.8194 378.908C15.8194 378.908 13.2889 389.99 12.5823 392.083C11.8757 394.175 51.6205 407.607 57.8838 408.791C64.1471 409.975 64.0637 403.884 64.0637 403.884L43.2276 383.758L39.3913 392.749Z" fill="#2F2E43"/>
<path d="M89.3542 54.9947L90.2816 70.0622L62.1584 71.4895L70.8673 51.6378L89.3542 54.9947Z" fill="#FDADB0"/>
<path d="M90.9991 67.8085C83.461 71.1722 71.4042 70.2519 57.7405 67.8085L55.605 162.513C55.605 162.513 98.3468 171.11 113.042 155.247L105.308 77.8678L90.9991 67.8085Z" fill="#E0E1E2"/>
<path d="M108.402 157.569L48.061 163.535L18.2833 365.816H41.1002L80.1707 227.21L83.2645 384.29H104.148L121.937 192.002L108.402 157.569Z" fill="#2F2E43"/>
<path d="M66.3192 62.0051L46.0453 74.0078C38.365 78.5547 34.745 87.7334 37.2526 96.3019L52.9215 149.842C52.9215 149.842 27.406 193.696 35.6971 197.565C54.3285 206.259 82.1304 204.143 82.1304 204.143L75.9167 99.1472L66.3192 62.0051Z" fill="#3F3D58"/>
<path d="M90.1183 67.4104L113.042 76.3203L118.457 142.48L133.619 195.777C107.938 205.156 110.335 200.785 110.335 200.785L106.081 108.82L90.1183 67.4104Z" fill="#3F3D58"/>
<path d="M123.607 194.65L123.528 194.288L100.095 85.8596C99.4405 82.83 100.278 79.7932 102.392 77.5274C104.507 75.2612 107.478 74.2176 110.545 74.6636C114.327 75.2137 117.355 77.97 118.258 81.6856L143.997 187.53L123.607 194.65Z" fill="#3F3D58"/>
<path d="M77.1511 58.9977C89.7523 58.9977 99.9676 48.7779 99.9676 36.1711C99.9676 23.5643 89.7523 13.3445 77.1511 13.3445C64.5499 13.3445 54.3346 23.5643 54.3346 36.1711C54.3346 48.7779 64.5499 58.9977 77.1511 58.9977Z" fill="#FDADB0"/>
<path d="M88.0064 6.59756C93.032 8.3647 95.9078 9.3759 98.542 11.9148C102.992 16.2034 103.726 21.9345 104.408 27.2595C104.942 31.4254 105.632 36.8115 103.194 42.9654C102.362 45.0654 98.3252 54.422 90.599 55.6044C89.0817 55.8366 85.5194 55.8977 86.5462 55.1393C96.0489 48.1205 100.104 43.8833 99.772 33.0661C99.5655 26.3448 89.2996 19.0881 83.204 17.7836C80.6362 17.2341 77.2175 17.7361 74.7661 19.7494C69.6429 23.9572 69.8615 41.357 64.4593 44.9943C62.2377 46.4901 63.7181 35.9605 62.1526 37.6681C59.0638 41.0373 61.0451 46.197 61.6001 48.162C64.233 57.4825 69.1968 58.3948 71.7683 66.3541C74.5447 74.9472 71.0505 83.0376 70.2218 84.9561C68.7805 88.2935 66.3066 94.0211 60.6548 96.7689C53.4809 100.257 47.8262 95.7149 44.4909 99.6086C42.6265 101.785 43.635 104.091 40.2676 110.861C39.1683 113.071 38.6187 114.176 38.1321 114.137C35.8295 113.952 32.1014 95.5117 38.131 78.3386C40.6615 71.1317 43.1406 64.0708 49.7859 58.5494C53.2992 55.6303 56.2458 54.5799 57.0846 51.171C58.2828 46.301 53.3073 44.2224 52.3099 36.5384C51.6279 31.2833 51.1494 23.7674 53.004 18.9501C54.7553 14.401 56.2757 10.452 60.2551 6.87146C61.2109 6.01146 68.9262 0.165728 77.1066 0.000830151C80.8728 -0.0749744 83.6398 5.06223 88.0064 6.59756Z" fill="#2F2E43"/>
<path d="M136.218 205.998C167.039 205.998 192.024 181.002 192.024 150.168C192.024 119.334 167.039 94.3377 136.218 94.3377C105.397 94.3377 80.4124 119.334 80.4124 150.168C80.4124 181.002 105.397 205.998 136.218 205.998Z" fill="#B24CC2"/>
<path d="M122.097 186.593C125.485 174.367 128.873 162.141 132.26 149.916C132.982 147.313 133.54 144.422 135.191 142.213C136.467 140.506 138.474 139.388 140.599 140.091C145.664 141.765 145.582 149.077 145.492 153.344C145.356 159.784 143.903 166.209 141.228 172.071C140.862 172.875 140.999 173.834 141.816 174.311C142.519 174.723 143.686 174.532 144.055 173.724C146.733 167.854 148.325 161.571 148.696 155.125C149.015 149.562 149.039 142.226 144.22 138.435C141.864 136.582 138.858 136.032 136.096 137.312C133.368 138.578 131.701 141.199 130.653 143.912C129.488 146.929 128.794 150.164 127.931 153.277L125.152 163.308C123.081 170.78 121.011 178.251 118.941 185.722C118.377 187.756 121.534 188.624 122.097 186.593Z" fill="white"/>
<path d="M136.612 169.566C138.708 161.694 139.779 153.554 139.788 145.408C139.79 143.3 136.517 143.297 136.515 145.408C136.506 153.278 135.481 161.09 133.455 168.695C132.912 170.734 136.069 171.604 136.612 169.566Z" fill="white"/>
<path d="M102.96 169.471C105.154 158.889 107.529 148.273 110.574 137.9C113.043 129.488 117.3 119.956 126.284 116.906C130.746 115.391 135.583 115.635 140.15 116.514C144.679 117.385 149.266 118.683 153.44 120.667C157.392 122.545 161.047 125.133 163.648 128.699C166.216 132.219 167.815 136.304 168.676 140.558C170.676 150.431 168.322 160.516 165.685 170.031C165.334 171.297 164.975 172.561 164.616 173.825C164.039 175.856 167.196 176.723 167.772 174.696C170.687 164.438 173.715 153.721 172.357 142.955C171.769 138.299 170.464 133.725 168.137 129.626C165.753 125.427 162.313 121.994 158.19 119.499C154.031 116.983 149.349 115.381 144.661 114.179C139.681 112.902 134.499 112.116 129.37 112.83C124.534 113.503 120.177 115.797 116.752 119.26C113.244 122.808 110.871 127.242 109.121 131.876C107.19 136.986 105.929 142.355 104.601 147.645C103.197 153.237 101.887 158.853 100.673 164.489C100.377 165.858 100.088 167.229 99.804 168.601C99.6247 169.466 100.056 170.37 100.947 170.615C101.758 170.838 102.78 170.341 102.96 169.471Z" fill="white"/>
<path d="M119.831 135.619C122.384 127.87 130.603 123.073 138.562 123.605C147.383 124.194 155.029 130.639 158.126 138.75C159.967 143.569 160.507 148.873 159.733 153.973C159.601 154.846 159.953 155.733 160.876 155.987C161.65 156.2 162.756 155.723 162.89 154.843C164.436 144.651 161.594 133.544 153.576 126.652C149.816 123.42 145.212 121.183 140.282 120.513C135.541 119.869 130.762 120.747 126.565 123.055C121.962 125.588 118.325 129.74 116.675 134.749C116.014 136.755 119.174 137.615 119.831 135.619Z" fill="white"/>
<path d="M112.866 150.638C112.163 159.039 110.047 167.345 106.623 175.05C106.264 175.858 106.388 176.809 107.21 177.29C107.908 177.698 109.088 177.515 109.449 176.703C113.124 168.433 115.385 159.659 116.14 150.638C116.213 149.756 115.335 149.001 114.503 149.001C113.556 149.001 112.94 149.753 112.866 150.638Z" fill="white"/>
<path d="M152.405 160.015C151.702 168.416 149.586 176.723 146.162 184.427C145.803 185.235 145.927 186.187 146.749 186.668C147.447 187.076 148.628 186.892 148.988 186.08C152.663 177.811 154.924 169.036 155.679 160.015C155.753 159.133 154.874 158.378 154.042 158.378C153.095 158.378 152.479 159.13 152.405 160.015Z" fill="white"/>
<path d="M121.102 153.498C123.207 145.148 126.694 137.235 131.426 130.041C132.587 128.276 129.754 126.633 128.599 128.388C123.726 135.798 120.114 144.027 117.946 152.628C117.431 154.672 120.587 155.544 121.102 153.498Z" fill="white"/>
<path d="M89.1138 138.782C96.16 138.04 102.228 141.213 102.667 145.867C103.106 150.521 97.7497 154.894 90.7008 155.635C87.8888 155.971 85.0425 155.603 82.3999 154.563L52.5075 157.314L51.6101 142.727L81.174 141.563C83.5708 139.992 86.2934 139.038 89.1138 138.782Z" fill="#FDADB0"/>
<path d="M52.6946 74.6999C45.4588 73.6803 38.6703 78.44 37.1663 85.594C31.9193 110.553 22.5035 163.718 37.2921 164.606C56.6284 165.766 75.1913 161.124 75.1913 161.124L70.5505 134.428L55.4682 132.88L64.34 91.3648C66.0245 83.4821 60.6731 75.8241 52.6946 74.6999Z" fill="#3F3D58"/>
</g>
<defs>
<clipPath id="clip0_32_571">
<rect width="199" height="410" fill="white"/>
</clipPath>
</defs>
</svg>
