<svg width="111" height="110" viewBox="0 0 111 110" fill="none" xmlns="http://www.w3.org/2000/svg">
<circle cx="55.5" cy="55" r="54.5" fill="white" stroke="#B24CC2"/>
<g clip-path="url(#clip0_54_1742)">
<path d="M55.7303 54.7699C60.6129 54.7699 65.2956 52.8302 68.7481 49.3777C72.2007 45.9251 74.1403 41.2425 74.1403 36.3598C74.1403 31.4772 72.2007 26.7945 68.7481 23.342C65.2956 19.8894 60.6129 17.9498 55.7303 17.9498C50.8476 17.9498 46.165 19.8894 42.7124 23.342C39.2599 26.7945 37.3202 31.4772 37.3202 36.3598C37.3202 41.2425 39.2599 45.9251 42.7124 49.3777C46.165 52.8302 50.8476 54.7699 55.7303 54.7699ZM49.1573 61.6736C34.9902 61.6736 23.5127 73.1511 23.5127 87.3182C23.5127 89.677 25.4256 91.59 27.7844 91.59H83.6761C86.0349 91.59 87.9478 89.677 87.9478 87.3182C87.9478 73.1511 76.4703 61.6736 62.3032 61.6736H49.1573Z" fill="#B24CC2"/>
</g>
<defs>
<clipPath id="clip0_54_1742">
<rect width="64.4352" height="73.6402" fill="white" transform="translate(23.5127 17.9498)"/>
</clipPath>
</defs>
</svg>
