<svg width="49" height="55" viewBox="0 0 49 55" fill="none" xmlns="http://www.w3.org/2000/svg">
<path d="M24.9873 27.4286C28.6246 27.4286 32.1128 25.9837 34.6848 23.4117C37.2567 20.8398 38.7016 17.3515 38.7016 13.7143C38.7016 10.077 37.2567 6.58875 34.6848 4.01682C32.1128 1.44489 28.6246 0 24.9873 0C21.35 0 17.8618 1.44489 15.2898 4.01682C12.7179 6.58875 11.273 10.077 11.273 13.7143C11.273 17.3515 12.7179 20.8398 15.2898 23.4117C17.8618 25.9837 21.35 27.4286 24.9873 27.4286ZM20.0909 32.5714C9.53731 32.5714 0.987305 41.1214 0.987305 51.675C0.987305 53.4321 2.4123 54.8571 4.16945 54.8571H45.8052C47.5623 54.8571 48.9873 53.4321 48.9873 51.675C48.9873 41.1214 40.4373 32.5714 29.8837 32.5714H20.0909Z" fill="black"/>
</svg>
